<?xml version="1.0" encoding="UTF-8"?>
<!-- Generated by Pixelmator Pro 3.5.11 -->
<svg width="4860" height="795" viewBox="0 0 4860 795" xmlns="http://www.w3.org/2000/svg">
    <g id="FM-trail">
        <path id="FM-trail-outline" fill="#ffffff" fill-rule="evenodd" stroke="none" d="M 3231.866455 688.486145 L 3077.999023 687.48877 L 3044.001465 656.618958 L 3010.003906 625.749084 L 3010.002197 518.963379 C 3010.000244 412.177643 3010.000244 412.177643 3005.003418 411.561218 C 3002.255127 411.222229 2996.292725 410.488861 2991.753418 409.931519 C 2987.214111 409.374146 2979.459473 408.241669 2974.520508 407.414886 C 2969.147705 406.515411 2963.92627 404.95639 2961.520264 403.533356 C 2959.309082 402.225342 2955.850342 399.430664 2953.834229 397.323029 C 2951.817871 395.215393 2949.14624 391.736145 2947.896729 389.591339 C 2946.19165 386.663452 2945.518311 383.650146 2945.195557 377.5 C 2944.895752 371.79071 2945.256348 367.61969 2946.385254 363.735809 C 2947.288574 360.627533 2949.710449 356.024719 2951.861328 353.327087 C 2953.982422 350.667206 2958.290283 346.952484 2961.435059 345.072174 C 2966.904297 341.802063 2967.725342 341.621124 2980.325928 340.910339 C 2987.571045 340.501587 3082.599121 339.820435 3191.499023 339.396637 L 3389.499023 338.625977 L 3272.235596 325.927643 C 3207.740479 318.943512 3123.590576 309.766998 3085.235107 305.535309 C 3046.879883 301.30365 3011.27124 297.203278 3006.104736 296.42334 C 3000.937988 295.643372 2994.346436 293.922852 2991.456543 292.599854 C 2988.56665 291.276917 2984.344727 288.337219 2982.074707 286.06723 C 2979.804688 283.797241 2976.946289 279.880493 2975.722412 277.363342 C 2973.88916 273.59198 2973.497803 271.075928 2973.497559 263.063843 C 2973.497559 254.893982 2973.880615 252.521851 2975.895996 248.213135 C 2977.215332 245.392822 2979.530273 241.586304 2981.040527 239.754272 C 2982.550537 237.922119 2986.087646 235.170532 2988.900146 233.639587 C 2992.594971 231.62854 2996.440918 230.579773 3002.755859 229.860901 C 3008.083984 229.254395 3091.538574 228.615845 3216.49707 228.225464 L 3421.49707 227.585022 L 3364.747314 221.283936 C 3333.534424 217.818359 3255.909424 209.3573 3192.246826 202.481506 C 3128.584229 195.605774 3069.104248 189.049438 3060.069336 187.911926 C 3047.697754 186.354309 3042.48291 185.256104 3038.945313 183.463562 C 3036.361816 182.15448 3032.197021 179.032227 3029.689697 176.525208 C 3026.7854 173.621094 3024.346191 169.884583 3022.967773 166.228394 C 3021.196533 161.530701 3020.875732 158.933411 3021.199707 151.908936 C 3021.513916 145.095215 3022.165527 142.162842 3024.363525 137.670044 C 3025.987305 134.350891 3028.893311 130.568359 3031.393066 128.519897 C 3033.737061 126.599243 3037.868896 124.039307 3040.574951 122.831177 C 3044.758301 120.963623 3048.209717 120.516235 3063.620605 119.843994 C 3073.589844 119.409241 3166.964844 118.717407 3271.120605 118.306763 C 3431.723633 117.673523 3458.899902 117.367065 3449.995117 116.289246 C 3444.220215 115.590271 3404.733643 111.176208 3362.247314 106.480225 C 3319.76123 101.784241 3249.336182 94.120239 3205.74707 89.449158 C 3162.158203 84.778076 3117.044678 79.84552 3105.494385 78.488098 C 3093.944336 77.130615 3081.119385 75.285706 3076.994385 74.388184 C 3072.869385 73.490662 3067.78833 71.890076 3065.702881 70.831238 C 3063.617676 69.7724 3060.118652 67.113403 3057.92749 64.922363 C 3055.736328 62.731323 3052.942383 58.879211 3051.71875 56.362061 C 3049.885498 52.590637 3049.493896 50.074585 3049.493896 42.0625 C 3049.493652 33.892639 3049.876709 31.520508 3051.892334 27.211792 C 3053.21167 24.391541 3055.526367 20.585022 3057.036621 18.75293 C 3058.546631 16.920898 3061.980957 14.225281 3064.667969 12.762695 C 3067.355225 11.299988 3072.465088 9.630981 3076.023438 9.05365 C 3080.397461 8.343872 3152.785889 8.000427 3299.493164 7.993408 C 3418.843262 7.987549 3546.530762 8.280884 3583.243164 8.645081 L 3649.993408 9.307251 L 3649.993652 33.143066 L 3649.994141 56.978882 L 3622.076172 56.97937 L 3594.158447 56.979858 L 3591.419189 65.229919 C 3589.912842 69.767395 3587.12207 77.755005 3585.217773 82.980042 C 3583.312988 88.205017 3580.409668 95.760376 3578.765137 99.769653 C 3576.847656 104.444763 3574.000244 109.001831 3570.825439 112.475586 C 3568.059814 115.501648 3563.584961 119.010071 3560.685303 120.425659 C 3557.830566 121.819214 3553.245361 123.227478 3550.495361 123.555054 C 3547.745361 123.882568 3544.911621 124.331421 3544.197998 124.55249 C 3543.359131 124.812378 3544.643311 127.048584 3547.831787 130.879761 C 3550.543945 134.138733 3553.548584 138.861755 3554.508545 141.375305 C 3555.912842 145.052124 3556.162109 148.050415 3555.783691 156.713013 C 3555.345459 166.753174 3554.858398 168.831543 3548.574707 187.480652 C 3544.868652 198.480713 3540.526611 210.235962 3538.92627 213.603516 C 3537.325684 216.970947 3534.25293 221.489807 3532.097412 223.645386 C 3529.941895 225.800903 3525.982666 228.759583 3523.299316 230.220093 C 3520.615723 231.680664 3516.1875 233.410828 3513.45874 234.065002 C 3510.729736 234.719116 3507.968506 235.390808 3507.32251 235.557617 C 3506.661377 235.728271 3507.561523 237.360229 3509.380615 239.28894 C 3511.158936 241.174377 3513.9375 245.253174 3515.55542 248.352844 C 3518.249023 253.512756 3518.490967 254.812073 3518.419434 263.734985 C 3518.344727 272.993042 3518.009766 274.46875 3511.733398 293.198273 C 3508.099121 304.042694 3503.279541 316.854858 3501.023438 321.669708 C 3498.164795 327.770294 3495.432861 331.858521 3492.011963 335.156128 C 3489.312012 337.758728 3485.391846 340.749023 3483.300781 341.801117 C 3481.209961 342.85321 3477.189453 344.295807 3474.366943 345.006836 C 3469.234863 346.299713 3469.234863 346.299713 3473.574463 351.627167 C 3476.047119 354.662933 3478.577393 359.189453 3479.456543 362.14975 C 3480.305176 365.00705 3480.999512 370.092529 3480.999512 373.450806 C 3480.999756 378.108704 3479.845215 382.986725 3476.131836 394.019379 C 3473.454346 401.973846 3469.156982 414.107025 3466.582031 420.982086 C 3464.006836 427.857117 3460.460205 435.90802 3458.700439 438.873016 C 3456.940674 441.837952 3453.324219 445.99939 3450.664307 448.120728 C 3447.51416 450.63266 3443.329834 452.704895 3438.664307 454.063477 C 3434.724365 455.210785 3430.903076 456.336456 3430.172119 456.564972 C 3429.26123 456.849792 3429.967773 458.294159 3432.41748 461.156006 C 3434.383301 463.452484 3436.979492 467.371857 3438.186768 469.865692 C 3439.70752 473.007507 3440.512939 476.897186 3440.808838 482.532562 C 3441.157715 489.179779 3440.76416 492.29245 3438.653809 499.573914 C 3437.233887 504.473663 3433.802734 514.782593 3431.029297 522.482666 C 3428.255859 530.182739 3424.202637 540.12677 3422.021729 544.580566 C 3419.534912 549.659485 3416.441406 554.167419 3413.723877 556.672424 C 3411.340576 558.869141 3408.672607 561.075195 3407.794434 561.574829 C 3406.366943 562.386963 3406.174805 568.305786 3405.981445 617.483154 C 3405.862549 647.733154 3405.529297 675.970642 3405.241211 680.233154 L 3404.717529 687.983154 L 3380.977539 687.983582 L 3357.237549 687.983948 L 3359.746582 694.195496 C 3361.98291 699.7323 3362.197998 701.388611 3361.723145 709.445435 C 3361.334961 716.034607 3360.187744 721.600281 3357.489746 729.983948 C 3355.454102 736.309021 3352.211426 745.759033 3350.283447 750.98407 C 3348.355225 756.209106 3345.559082 763.071655 3344.069092 766.234192 C 3341.360596 771.984253 3341.360596 771.984253 3352.266846 771.98407 C 3358.60083 771.983948 3363.033447 772.375732 3362.839844 772.918579 C 3362.656494 773.432678 3361.475342 775.239685 3360.215088 776.934082 C 3358.5625 779.156189 3358.283691 780.123047 3359.215088 780.40271 C 3359.925537 780.616028 3362.531494 781.2005 3365.006592 781.70166 C 3369.506592 782.612854 3369.506592 782.612854 3365.745361 784.27124 C 3363.676514 785.18335 3359.176758 787.129639 3355.745605 788.596313 C 3352.314209 790.062988 3348.831787 791.37146 3348.006836 791.503967 C 3347.181885 791.636597 3341.668945 791.355347 3335.755859 790.878967 C 3329.842773 790.40271 3315.081787 789.330872 3302.953613 788.497131 C 3290.825439 787.663452 3269.113281 785.627563 3254.704346 783.973083 C 3240.295654 782.318542 3224.054932 780.287415 3218.614258 779.459473 C 3213.17334 778.631531 3206.752686 777.083191 3204.346191 776.018738 C 3201.939941 774.954285 3197.77124 771.825195 3195.082764 769.065125 C 3192.383057 766.293579 3189.369141 761.906921 3188.350586 759.266907 C 3187.022949 755.826416 3186.506104 751.824707 3186.506104 744.986938 C 3186.505859 736.297791 3186.755127 735.06012 3189.425537 730.486877 C 3191.031006 727.736816 3196.656006 721.289124 3201.925293 716.158691 C 3207.194336 711.028198 3216.08667 702.703064 3221.685791 697.658325 L 3231.866455 688.486145 Z"/>
        <path id="path1" fill="#ea286a" stroke="none" d="M 3309.085938 755.587891 C 3308.704834 755.590454 3308.291992 755.568115 3307.845703 755.515625 C 3278.275635 752.076111 3248.626465 748.946045 3218.986328 745.726563 C 3233.326172 732.17627 3247.784912 719.975281 3261.224609 706.625 C 3262.883301 704.968384 3265.164063 704.086731 3267.505859 704.195313 C 3288.095947 704.194946 3308.676025 704.195679 3328.916016 704.195313 C 3329.728516 705.963135 3329.728516 707.99585 3328.916016 709.763672 C 3324.15625 723.237061 3319.385254 736.707092 3314.605469 750.173828 C 3313.572266 753.073853 3312.770264 755.563354 3309.085938 755.587891 Z M 3347.978516 644.179688 C 3347.585938 644.175171 3347.171875 644.14502 3346.734375 644.09375 C 3332.204346 642.363953 3317.664551 640.825439 3303.144531 639.095703 C 3300.744629 638.805664 3296.963623 639.015747 3298.09375 634.845703 C 3301.883545 620.845642 3297.15332 607.904541 3293.953125 594.724609 C 3293.883301 594.43457 3294.092529 594.08429 3294.3125 593.154297 L 3369.892578 593.123047 C 3364.182861 609.34314 3358.724609 624.624512 3353.464844 639.974609 C 3352.40625 643.045837 3350.726318 644.21106 3347.978516 644.179688 Z M 3165.783203 624.287109 C 3162.403076 624.28717 3160.533203 623.07782 3161.863281 619.507813 C 3164.74292 611.727783 3167.864014 604.017578 3170.763672 596.267578 C 3171.673584 593.877563 3173.093262 592.436829 3175.863281 592.466797 C 3183.713135 592.56665 3191.513184 592.5177 3200.613281 592.517578 C 3197.613281 597.697632 3193.902832 600.517395 3190.703125 603.607422 C 3184.763184 609.407593 3178.603027 614.967346 3172.533203 620.607422 C 3170.603271 622.41748 3168.803223 624.327026 3165.783203 624.287109 Z M 3407.921387 482.33313 C 3407.671387 484.653137 3407.761475 486.023132 3407.351563 487.213135 C 3402.531738 501.023224 3397.531982 514.783325 3392.812256 528.623352 C 3391.422363 532.68335 3389.55249 534.273438 3384.872559 533.74353 C 3333.6521 527.914368 3282.412109 522.335327 3231.171875 516.746155 C 3223.231934 515.876343 3215.281982 515.166382 3207.342041 514.326599 C 3201.181885 513.676636 3200.87207 513.32666 3202.201904 507.806641 C 3203.831787 501.026672 3205.991699 494.346619 3207.261475 487.496582 C 3208.071533 483.176544 3210.261475 482.256531 3214.101563 482.326477 C 3223.101563 482.476349 3232.101563 482.326172 3241.101563 482.325989 L 3407.951416 482.32312 Z M 3447.759521 372.78244 C 3442.069824 388.962555 3436.639893 404.272644 3431.330566 419.632721 C 3430.090576 423.232697 3427.92041 423.632782 3424.400391 423.262848 C 3386.687256 419.023499 3348.967041 414.890778 3311.240234 410.864777 C 3277.480225 407.245361 3243.699951 403.795929 3209.939941 400.146545 C 3176.179932 396.497101 3142.449951 392.637695 3108.699707 388.978302 C 3074.949707 385.318878 3041.159668 381.829468 3007.399658 378.220062 C 2993.529785 376.740265 2979.669434 375.150543 2965.82959 372.790771 Z M 3006.357666 262.360046 L 3484.867676 262.351746 C 3486.60791 265.411743 3484.86792 267.75177 3484.007813 270.151794 C 3479.947998 281.771912 3475.851563 293.381927 3471.718262 304.981995 C 3468.838623 313.052032 3468.778564 313.282074 3460.638428 312.462219 C 3438.118652 310.212616 3415.638428 307.77301 3393.098389 305.353333 C 3365.29834 302.360474 3337.498291 299.360962 3309.698242 296.354797 L 3225.308105 287.196259 C 3198.168213 284.256744 3171.028076 281.327209 3143.887939 278.407715 C 3115.414307 275.321533 3086.951172 272.228699 3058.497803 269.12915 C 3040.987793 267.239441 3023.497803 265.419739 3005.947754 263.570068 Z M 3523.175781 152.701111 C 3523.675781 154.303162 3523.583496 156.031433 3522.915771 157.571106 C 3518.586182 170.511169 3513.91626 183.351318 3510.056641 196.421326 C 3508.466553 201.751404 3505.81665 203.071411 3500.696533 202.421509 C 3485.156494 200.591797 3469.58667 199.112061 3454.026611 197.422302 C 3426.23999 194.402771 3398.449707 191.363281 3370.65625 188.303772 C 3342.202881 185.190918 3313.749756 182.088074 3285.296387 178.9953 C 3257.826172 175.995728 3230.346191 173.186157 3202.885986 170.216675 C 3174.756104 167.217163 3146.645752 164.027588 3118.515869 160.988159 C 3095.055908 158.448547 3071.585938 155.988953 3047.425781 153.429321 C 3055.315918 151.259277 3512.155762 150.701294 3523.175781 152.701111 Z M 3563.854004 41.230469 C 3557.934082 58.040466 3552.494385 73.340637 3547.174561 88.680664 C 3545.904541 92.32074 3543.314697 92.680786 3540.074707 92.360901 C 3531.4646 91.440979 3522.844727 90.671082 3514.244629 89.741333 C 3472.244629 85.202026 3430.244629 80.639404 3388.244385 76.053467 C 3348.244385 71.664124 3308.244385 67.114868 3268.174072 62.775513 C 3228.474121 58.466248 3188.724121 54.606934 3149.053955 50.017517 C 3125.663818 47.307983 3102.053955 45.948425 3077.233887 41.238892 Z"/>
    </g>
    <g id="FM">
        <path id="FM-outline" fill="#ffffff" fill-rule="evenodd" stroke="none" d="M 3459.506836 791.684998 C 3362.434326 791.860901 3345.731689 791.681152 3341.006836 790.40979 C 3337.981934 789.595825 3333.031738 787.419495 3330.006592 785.573425 C 3326.64502 783.521973 3323.043945 780.154785 3320.744385 776.91272 C 3318.675293 773.995361 3316.48584 769.780579 3315.879395 767.54657 C 3315.261475 765.270447 3314.981445 759.527954 3315.241943 754.48468 C 3315.657471 746.450378 3316.621338 742.802246 3324.226318 720.484558 C 3328.911621 706.734436 3354.401611 633.946167 3380.870361 558.732788 C 3407.3396 483.519409 3452.131592 356.393646 3480.408203 276.231079 C 3508.684814 196.068481 3539.107178 110.005859 3548.013428 84.980652 C 3556.919434 59.955505 3565.548828 36.221497 3567.189941 32.238525 C 3568.934082 28.004822 3572.024902 22.937012 3574.630615 20.038696 C 3577.082275 17.311829 3581.429443 13.94397 3584.290771 12.554382 C 3587.152344 11.164795 3592.643311 9.537292 3596.493164 8.937866 C 3601.45459 8.165283 3712.989258 7.853577 3979.493164 7.867371 C 4235.931152 7.880615 4357.655762 8.219238 4362.293945 8.93219 C 4366.03418 9.50708 4370.89209 10.894409 4373.088867 12.015259 C 4375.285645 13.135925 4378.77832 15.584351 4380.850586 17.455994 C 4382.922363 19.327698 4385.92334 23.245728 4387.519043 26.162537 C 4390.02002 30.734924 4390.475098 32.790222 4390.817383 41.069946 C 4391.036133 46.352112 4390.703613 56.927124 4390.078125 64.570007 C 4389.452637 72.212891 4386.46582 99.277161 4383.439941 124.71283 C 4380.414063 150.148438 4375.478027 191.548584 4372.470703 216.713013 C 4369.462891 241.877441 4367.138184 262.877441 4367.304199 263.3797 C 4367.470215 263.882019 4376.85791 248.581848 4388.165039 229.379333 C 4399.47168 210.17688 4423.689941 168.815491 4441.98291 137.46521 C 4460.275879 106.114929 4481.718262 69.587341 4489.633789 56.292786 C 4497.54834 42.998291 4506.062988 29.409302 4508.554688 26.09491 C 4511.17041 22.615112 4515.655273 18.352112 4519.168457 16.005615 C 4522.515137 13.770813 4528.231934 11.038696 4531.873047 9.934143 C 4538.389648 7.957214 4540.761719 7.929932 4683.493164 8.192139 C 4828.493164 8.458496 4828.493164 8.458496 4833.413574 10.7276 C 4836.119629 11.975464 4840.224121 14.545471 4842.534668 16.438538 C 4844.845215 18.331421 4848.255859 22.249207 4850.114258 25.144531 C 4853.474121 30.378357 4853.493652 30.477966 4853.493652 42.433411 C 4853.494141 53.994751 4853.274414 55.247925 4847.795898 74.958191 C 4844.661621 86.233276 4831.280273 132.24762 4818.05957 177.212219 C 4804.838867 222.176941 4782.989258 296.314117 4769.505859 341.961487 C 4756.021973 387.608887 4733.081543 465.236847 4718.527344 514.468018 C 4703.973633 563.69928 4685.276367 626.812866 4676.978027 654.720398 C 4668.680176 682.62793 4657.892578 718.537354 4653.006348 734.519165 C 4648.120605 750.500916 4643.123047 766.247681 4641.901855 769.511963 C 4640.318848 773.742126 4638.07373 777.054199 4634.086914 781.04187 C 4630.275879 784.852661 4626.581055 787.406067 4622.499512 789.049438 C 4616.506836 791.462219 4616.506836 791.462219 4512.006836 791.81012 C 4454.531738 792.001465 4400.981934 791.744934 4393.006836 791.240051 C 4380.432129 790.444031 4377.679199 789.949341 4372.272461 787.514832 C 4368.322266 785.735962 4364.364746 782.918518 4361.470703 779.824524 C 4358.958008 777.138916 4355.805176 772.584717 4354.464355 769.704163 C 4352.520996 765.529968 4352.025391 762.842773 4352.022461 756.466797 C 4352.02002 750.791565 4352.868164 745.270142 4354.941406 737.466736 C 4356.549316 731.416687 4362.422852 711.697876 4367.994629 693.647156 C 4373.566406 675.596436 4377.985352 660.428711 4377.814453 659.941101 C 4377.644043 659.453552 4365.165039 680.072449 4350.083984 705.760925 C 4335.00293 731.449402 4319.928223 756.922852 4316.584961 762.368591 C 4313.241699 767.81427 4308.102539 774.893921 4305.165039 778.101074 C 4301.712402 781.870911 4297.646973 785.001404 4293.665527 786.956787 C 4290.27832 788.620178 4285.031738 790.468445 4282.006836 791.063904 C 4278.23584 791.806152 4249.625977 792.040344 4191.006836 791.808838 C 4105.506836 791.471008 4105.506836 791.471008 4100.006836 788.843506 C 4096.981934 787.398376 4092.631836 784.248474 4090.340576 781.843689 C 4088.049316 779.438904 4085.193604 775.563477 4083.994873 773.231506 C 4082.795898 770.899597 4081.433105 765.949646 4080.966553 762.231567 C 4080.472656 758.297241 4080.528564 749.828308 4081.100098 741.971436 C 4081.640381 734.546448 4084.0979 709.346375 4086.561035 685.971375 C 4089.024658 662.596313 4090.901123 642.796265 4090.731445 641.971313 C 4090.561523 641.14624 4086.483154 650.475769 4081.667969 662.703369 C 4076.853027 674.931091 4066.14624 702.15625 4057.875244 723.203796 C 4049.604248 744.251404 4041.068848 765.260254 4038.907715 769.890198 C 4036.475586 775.101563 4033.443359 779.769043 4030.947998 782.142822 C 4028.730957 784.251831 4025.1604 786.87384 4023.012695 787.969482 C 4020.865234 789.065063 4016.047852 790.457886 4012.307373 791.064575 C 4007.539795 791.837891 3970.980225 792.064331 3890.006836 791.822205 C 3774.506836 791.476746 3774.506836 791.476746 3768.946777 788.86908 C 3765.888672 787.434875 3761.0979 783.973022 3758.300781 781.176025 C 3755.321045 778.196289 3752.44751 774.100403 3751.36084 771.283936 C 3749.977783 767.69928 3749.506348 763.807617 3749.506104 755.977173 C 3749.506104 745.477173 3749.506104 745.477173 3759.677734 720.47699 C 3765.272217 706.726929 3785.866943 656.372192 3805.444092 608.577637 C 3825.020996 560.783142 3840.913574 521.553711 3840.760986 521.401001 C 3840.608398 521.248413 3837.787598 522.094299 3834.49292 523.280762 C 3828.770508 525.341309 3826.643311 525.449463 3787.002197 525.694946 C 3764.177246 525.836304 3731.451416 526.299683 3714.27832 526.72467 C 3688.579834 527.360596 3682.788818 527.763062 3681.552979 528.998901 C 3680.727295 529.824707 3672.394043 552.434204 3663.034668 579.242126 C 3653.675293 606.049988 3637.417969 652.620361 3626.906982 682.731689 C 3616.39624 712.843079 3605.334717 744.229675 3602.325684 752.479736 C 3599.316895 760.729797 3595.699219 769.907166 3594.286865 772.873901 C 3592.874268 775.840637 3589.9375 780.049072 3587.760498 782.226013 C 3585.58374 784.403015 3581.26123 787.375732 3578.154785 788.832214 C 3572.506836 791.480225 3572.506836 791.480225 3459.506836 791.684998 Z"/>
        <path id="FM-text" fill="#e91f64" stroke="none" d="M 4268.529297 759.339844 C 4268.270996 759.341675 4268.009766 759.340698 4267.746094 759.337891 C 4219.746094 758.898743 4171.746094 759.099731 4123.746094 759.140625 C 4110.106445 759.140869 4112.496094 758.391296 4113.505859 748.53125 C 4117.095215 713.411255 4120.945801 678.32074 4124.695313 643.220703 C 4127.661133 615.414063 4130.619141 587.598145 4133.572266 559.771484 C 4137.271973 525.338135 4140.988281 490.904114 4144.720703 456.470703 C 4146.150879 443.230713 4147.619629 429.990021 4149.019531 416.75 C 4149.219238 414.869995 4150.02002 412.509949 4147.609375 411.5 C 4144.689453 410.300018 4143.400879 412.500885 4142.390625 414.710938 C 4141.561035 416.520935 4140.86084 418.399719 4140.130859 420.259766 C 4097.366211 529.720337 4054.591309 639.178833 4011.806641 748.632813 C 4007.566895 759.472839 4009.986572 759.122803 3997.136719 759.123047 C 3928.809814 759.124207 3860.476563 759.125793 3792.136719 759.126953 C 3788.84668 759.106995 3785.516846 759.776123 3781.796875 758.076172 C 3781.626709 753.926147 3783.536865 751.076172 3784.796875 748.076172 C 3879.939453 515.768066 3975.133789 283.479034 4070.382813 51.210938 C 4075.052979 39.820862 4072.873047 41.031738 4085.382813 41.021484 C 4172.71582 41.019958 4260.049316 41.019104 4347.382813 41.017578 C 4348.382813 41.017578 4349.382813 41.017578 4350.382813 41.017578 C 4359.562988 41.13739 4359.384277 41.126038 4358.285156 50.576172 C 4353.285645 92.576172 4348.416504 134.576172 4343.386719 176.576172 C 4338.387695 218.236206 4333.237793 259.87738 4328.21875 301.527344 C 4324.219238 334.587402 4320.300293 367.653229 4316.460938 400.726563 C 4316.240723 402.596558 4315.029297 405.036835 4317.529297 405.966797 C 4320.029297 406.896729 4322.92041 407.198151 4324.810547 404.578125 C 4326.370605 402.41806 4327.609375 400.036346 4328.949219 397.736328 C 4396.580566 282.168579 4464.128906 166.547424 4531.59375 50.873047 C 4536.143066 43.042969 4541.03418 40.793274 4549.664063 40.873047 C 4636.324219 41.19165 4722.983887 41.090576 4809.664063 41.039063 C 4825.394043 41.038757 4822.54248 41.408997 4819.132813 53.039063 C 4750.716797 285.0867 4682.273926 517.151489 4613.804688 749.232422 C 4610.905273 759.07251 4610.916992 759.122864 4601.277344 759.123047 L 4393.277344 759.126953 C 4382.277344 759.127136 4382.275391 759.075684 4385.714844 748.015625 C 4419.899902 639.435059 4454.092773 530.853882 4488.291016 422.273438 C 4488.890625 420.373444 4489.470215 418.464661 4490.070313 416.554688 C 4490.67041 414.644623 4492.160645 412.554291 4489.560547 411.404297 C 4487.374023 410.28653 4484.702637 410.853302 4483.160156 412.763672 C 4481.616211 414.931793 4480.208008 417.194183 4478.941406 419.535156 C 4414.370117 529.176147 4349.804688 638.824219 4285.246094 748.478516 C 4285.059082 748.752686 4284.891602 749.03949 4284.746094 749.337891 C 4281.840332 756.942627 4276.53125 759.282715 4268.529297 759.339844 Z M 3353.046875 759.267578 C 3351.381104 759.270508 3349.702393 759.134766 3348.027344 758.384766 C 3346.947021 754.384766 3349.226563 751.233582 3350.386719 747.933594 C 3395.664551 619.199646 3440.994629 490.488098 3486.378906 361.800781 C 3522.657227 258.826904 3558.939697 155.864014 3595.224609 52.910156 C 3596.002441 51.068115 3596.67041 49.181152 3597.224609 47.259766 C 3598.224609 42.599854 3600.864258 40.420593 3605.744141 41.060547 C 3607.408936 41.171082 3609.079346 41.16925 3610.744141 41.058594 C 3740.077148 41.056396 3869.381348 41.054932 3998.654297 41.052734 C 4001.924316 41.052673 4005.273926 40.443665 4008.423828 41.683594 C 4010.173828 44.243591 4008.243896 46.242188 4007.423828 48.242188 C 3984.36499 104.622437 3961.126221 160.943726 3938.287109 217.414063 C 3935.817383 223.524048 3932.508057 224.994507 3926.417969 224.974609 C 3871.768066 224.765503 3817.118164 224.846436 3762.417969 224.857422 C 3752.038086 224.857544 3752.026855 224.85675 3748.626953 234.716797 C 3739.727295 260.516968 3730.8479 286.323242 3721.988281 312.136719 C 3721.168213 314.856689 3720.507568 317.717834 3719.507813 321.507813 L 3892.257813 321.503906 C 3894.86792 324.593842 3893.369141 326.675049 3892.539063 328.705078 C 3870.969971 381.385406 3849.240479 434.004639 3827.951172 486.794922 C 3825.551514 492.734955 3821.78125 492.636871 3817.03125 492.626953 C 3768.364502 492.627808 3719.697998 492.628052 3671.03125 492.628906 C 3669.034668 492.794708 3667.027832 492.794647 3665.03125 492.628906 C 3659.181152 491.629028 3656.961182 494.628815 3655.201172 499.798828 C 3644.871826 530.029053 3634.203125 560.150146 3623.683594 590.320313 C 3605.017578 643.740601 3586.374756 697.15979 3567.755859 750.580078 C 3564.666016 759.450134 3565.757324 759.210754 3556.027344 759.210938 C 3489.360596 759.212097 3422.694092 759.213684 3356.027344 759.214844 C 3355.041016 759.214844 3354.046387 759.265808 3353.046875 759.267578 Z"/>
    </g>
    <g id="Lebkuchen">
        <path id="Lebkuchen-outline" fill="#ffffff" fill-rule="evenodd" stroke="none" d="M 2501.726318 395.498749 C 2511.625977 396.668884 2518.141357 397.458862 2522.591797 398.009216 C 2527.042236 398.55954 2533.947754 400.119904 2537.937012 401.476715 C 2541.926514 402.833527 2547.510254 405.369537 2550.345459 407.112305 C 2553.180664 408.855042 2557.416016 411.849121 2559.757568 413.765686 C 2562.098877 415.682281 2566.118164 420.414093 2568.688721 424.280731 C 2571.259277 428.147461 2574.373535 434.095947 2575.609131 437.499725 C 2576.844727 440.903534 2578.305908 447.719727 2578.855957 452.646973 C 2579.502197 458.435516 2579.523682 465.437347 2578.916016 472.434692 C 2578.39917 478.390686 2577.054199 486.916412 2575.927734 491.380646 C 2574.801025 495.84491 2572.510742 504.138763 2570.837891 509.81134 C 2569.165039 515.484009 2568.129395 520.434021 2568.536133 520.811401 C 2568.943115 521.188843 2569.442139 521.047607 2569.645264 520.497559 C 2569.848389 519.947632 2572.835938 514.997559 2576.28418 509.497467 C 2579.732666 503.997406 2585.779053 495.22229 2589.721191 489.997253 C 2593.663086 484.772186 2600.758545 476.222015 2605.488281 470.996979 C 2610.218262 465.771912 2618.006104 457.949371 2622.794678 453.613678 C 2627.583008 449.277954 2634.875732 443.170166 2639.000732 440.040833 C 2643.125732 436.911407 2649.200439 432.551025 2652.500488 430.350952 C 2655.800537 428.150879 2662.325439 424.290039 2667.000488 421.77124 C 2671.675537 419.252411 2680.371338 415.116699 2686.324707 412.58078 C 2692.27832 410.044769 2701.626709 406.639709 2707.099121 405.013824 C 2712.571533 403.388 2721.785645 401.143585 2727.575195 400.026215 C 2736.268799 398.348389 2742.104492 397.994598 2761.093018 397.994263 C 2778.134521 397.993988 2786.078857 398.402893 2791.792236 399.574554 C 2796.031494 400.443878 2804 402.910645 2809.500244 405.056183 C 2815.000244 407.201782 2822.387939 410.652771 2825.91748 412.725159 C 2829.447021 414.797485 2836.080078 420.025146 2840.657471 424.342133 C 2845.234863 428.659149 2851.078125 434.959015 2853.641846 438.341919 C 2856.205566 441.724823 2859.812256 447.729614 2861.656494 451.686005 C 2863.500488 455.642395 2866.180176 462.61734 2867.61084 467.185913 C 2869.04126 471.754486 2870.558838 476.392395 2870.982666 477.492371 C 2871.696533 479.345581 2871.873047 479.272156 2873.389404 476.49234 C 2874.289307 474.842285 2878.16333 467.127991 2881.997803 459.349426 C 2885.832764 451.570862 2891.598145 441.670715 2894.810303 437.349213 C 2898.022461 433.027679 2904.253174 426.116791 2908.656738 421.99173 C 2914.070801 416.9198 2919.581787 412.957855 2925.678223 409.754181 C 2930.636475 407.148621 2939.597168 403.427216 2945.591064 401.484436 C 2951.584717 399.541565 2960.75293 397.449066 2965.9646 396.83429 C 2971.386719 396.194733 2980.000732 395.99353 2986.101318 396.363922 C 2991.965088 396.719971 3000.295166 397.914703 3004.612793 399.018921 C 3008.930664 400.123169 3014.884521 402.480804 3017.84375 404.258148 C 3020.803223 406.035553 3024.969238 409.460175 3027.101807 411.86853 C 3029.234375 414.276855 3032.120117 418.579071 3033.514648 421.429016 C 3034.908936 424.278961 3036.328369 428.961914 3036.668701 431.835571 C 3037.009277 434.70929 3037.562988 436.932007 3037.899414 436.775024 C 3038.23584 436.61795 3041.883789 434.085846 3046.005615 431.148163 C 3050.12793 428.210419 3057.6875 423.332092 3062.804932 420.307465 C 3067.922119 417.282806 3075.841309 413.059082 3080.402832 410.921417 C 3084.964355 408.783722 3093.377441 405.476074 3099.098145 403.571136 C 3104.819092 401.666138 3113.491455 399.293121 3118.369873 398.297729 C 3124.052002 397.138397 3131.599609 396.487854 3139.369873 396.487732 C 3146.766602 396.48761 3154.74292 397.143158 3159.810547 398.167664 C 3164.944092 399.205505 3171.76001 401.617981 3177.640137 404.478271 C 3184.814941 407.968506 3188.708008 410.657593 3193.448486 415.397919 C 3197.97168 419.920929 3201.007324 424.223114 3204.258789 430.717865 C 3207.258545 436.7099 3209.199219 442.228333 3210.026123 447.117615 C 3210.834229 451.896484 3211.07373 459.231476 3210.708008 467.986511 C 3210.276367 478.317322 3209.442627 484.230469 3207.156982 493.175232 C 3205.51416 499.604034 3200.802979 514.904053 3196.687744 527.175415 C 3192.57251 539.446716 3184.622314 561.636963 3179.020752 576.487061 C 3173.419189 591.337158 3166.434326 610.010132 3163.498779 617.982605 C 3160.562988 625.955017 3158.340576 632.657104 3158.55957 632.876038 C 3158.778564 633.095032 3162.434082 630.172119 3166.683594 626.380676 C 3170.932861 622.589233 3180.505615 613.694946 3187.956543 606.615662 C 3195.407227 599.536377 3205.142822 590.534912 3209.59082 586.612549 C 3214.039307 582.690125 3220.032715 578.199585 3222.909668 576.633606 C 3225.786865 575.067627 3230.543701 572.941772 3233.480957 571.909363 C 3236.417969 570.877014 3241.933594 569.549438 3245.737549 568.959106 C 3250.456055 568.226929 3254.611328 568.201111 3258.814209 568.877869 C 3262.202393 569.423462 3267.904297 571.268005 3271.484863 572.976868 C 3275.065918 574.68573 3280.696289 578.584106 3283.996826 581.639893 C 3288.205811 585.536621 3291.043945 589.329407 3293.499756 594.340393 C 3295.693604 598.817017 3297.431641 604.311279 3298.153564 609.053467 C 3298.865967 613.732483 3299.068604 621.558655 3298.684326 629.553467 C 3298.342529 636.665771 3297.424316 645.03363 3296.644043 648.14856 C 3295.863525 651.26355 3294.212891 656.888611 3292.976074 660.648682 C 3291.73877 664.408691 3289.60083 669.735107 3288.224609 672.485168 C 3286.848633 675.235168 3283.448242 680.860229 3280.668457 684.985291 C 3277.888916 689.110352 3271.314941 696.936829 3266.060059 702.377502 C 3260.804932 707.818176 3251.8479 716.491272 3246.155273 721.651001 C 3240.462646 726.810791 3232.001465 734.05957 3227.352539 737.759399 C 3222.703369 741.459229 3213.636475 748.180054 3207.203125 752.694641 C 3200.769775 757.209167 3192.806396 762.325989 3189.506348 764.065369 C 3186.206299 765.804688 3180.131348 769.160278 3176.006348 771.522217 C 3171.881592 773.884155 3163.601318 777.900452 3157.605957 780.447388 C 3151.610596 782.994324 3141.935791 786.422241 3136.106201 788.065002 C 3130.276611 789.707764 3120.106934 791.937439 3113.506836 793.019897 C 3105.481934 794.33606 3096.694824 794.988159 3086.980713 794.988464 C 3078.991211 794.988708 3068.821777 794.533508 3064.382324 793.976868 C 3059.942627 793.420288 3052.37085 791.633362 3047.555908 790.005981 C 3042.741211 788.37854 3036.0354 785.491089 3032.654053 783.589417 C 3029.272949 781.687744 3023.448242 777.597717 3019.710205 774.500549 C 3015.97168 771.40332 3010.843018 766.083923 3008.312744 762.679688 C 3005.782471 759.275391 3001.955078 752.774719 2999.807861 748.233704 C 2997.660645 743.692688 2994.999268 735.817749 2993.893799 730.733826 C 2992.333252 723.557312 2991.841553 717.241577 2991.694336 702.490295 L 2991.504883 683.490295 L 2986.411377 693.490356 C 2983.609863 698.990417 2978.271484 710.24054 2974.548584 718.490601 C 2970.825439 726.740662 2965.532959 737.765747 2962.786865 742.990784 C 2960.04126 748.21582 2955.72583 755.64093 2953.197998 759.490967 C 2950.669678 763.341003 2945.654785 769.456116 2942.053955 773.080078 C 2938.452881 776.704102 2931.991455 781.722534 2927.695068 784.2323 C 2923.398926 786.741943 2915.973877 790.077087 2911.195313 791.643616 C 2903.102539 794.296509 2901.403564 794.491821 2886.416016 794.492126 C 2876.64624 794.492249 2868.396973 793.993286 2865.416016 793.221802 C 2862.716064 792.522949 2857.356934 790.41217 2853.506836 788.531128 C 2849.656738 786.650024 2844.031494 782.895752 2841.006592 780.188232 C 2837.981689 777.480713 2833.706543 772.728699 2831.506348 769.628113 C 2828.547363 765.458069 2826.98584 764.08197 2825.506348 764.341125 C 2824.40625 764.533875 2818.79834 766.826111 2813.044189 769.435059 C 2807.290283 772.044006 2798.290283 775.885132 2793.044434 777.970886 C 2787.798584 780.056641 2778.755859 783.121826 2772.949707 784.78241 C 2767.143555 786.442993 2758.143555 788.717041 2752.949951 789.835815 C 2747.756104 790.95459 2738.355469 792.583313 2732.05957 793.4552 C 2724.695313 794.475037 2713.355225 795.040527 2700.266113 795.040771 C 2689.075684 795.040955 2676.001953 794.560364 2671.213379 793.972778 C 2666.424805 793.385193 2658.189941 792.030945 2652.913574 790.963379 C 2647.637451 789.895813 2639.537354 787.924438 2634.913574 786.582581 C 2630.289551 785.240723 2622.776367 782.544434 2618.217041 780.59082 C 2613.657715 778.637207 2606.682617 775.153137 2602.717041 772.84845 C 2598.750977 770.543701 2591.980957 765.921875 2587.672119 762.577698 C 2583.363281 759.233582 2578.785156 755.647888 2577.498535 754.609558 L 2575.159668 752.72168 L 2571.710938 754.609619 C 2569.813965 755.64801 2563.367188 759.613098 2557.384277 763.420898 C 2551.401367 767.228699 2542.231689 772.499939 2537.006592 775.134705 C 2531.781494 777.769531 2522.781494 781.46759 2517.006592 783.352661 C 2511.231689 785.237671 2499.981934 788.150513 2492.006836 789.8255 C 2484.031738 791.500549 2472.629639 793.416077 2466.668457 794.082336 C 2460.263184 794.798218 2450.651123 795.05481 2443.168457 794.709656 C 2433.837646 794.279297 2428.13916 793.439209 2421.506836 791.516235 C 2416.556885 790.081055 2409.629883 787.57135 2406.113281 785.939087 C 2402.59668 784.306824 2396.918457 780.972534 2393.494873 778.529541 C 2390.071289 776.086609 2385.117188 771.70575 2382.485352 768.794312 C 2379.854004 765.882935 2376.213867 761.190002 2374.39624 758.365601 C 2372.578369 755.541199 2369.529297 749.457031 2367.620361 744.845276 C 2365.710938 740.233459 2363.408936 732.644409 2362.504395 727.980713 C 2361.416016 722.368774 2360.799805 713.41394 2360.682617 701.501221 L 2360.504883 683.501221 L 2346.727295 711.501465 C 2339.149414 726.90155 2330.384521 743.303589 2327.249512 747.950378 C 2324.114502 752.597168 2318.389893 759.59668 2314.527832 763.504761 C 2310.666016 767.412842 2304.131592 773.002869 2300.006592 775.927002 C 2295.881592 778.851074 2288.906494 782.971252 2284.506592 785.082947 C 2280.106934 787.194641 2272.946289 789.953003 2268.594482 791.212646 C 2261.398926 793.29541 2258.65625 793.502991 2238.322754 793.503296 C 2215.963135 793.503723 2215.963135 793.503723 2207.493408 789.169128 C 2200.586182 785.634399 2197.662598 783.346008 2191.649658 776.767944 L 2184.275635 768.701355 L 2169.391357 774.776855 C 2161.20459 778.118347 2149.106689 782.447388 2142.506592 784.396912 C 2135.906738 786.346497 2125.331787 789.050842 2119.006836 790.406738 C 2112.681885 791.762512 2103.136963 793.352051 2097.796143 793.938904 C 2092.455322 794.525757 2079.983398 795.006042 2070.080566 795.006226 C 2059.352051 795.006409 2047.515137 794.380859 2040.79126 793.458435 C 2034.584839 792.606995 2025.006836 790.746277 2019.506836 789.323486 C 2014.006714 787.900696 2006.234741 785.448486 2002.235718 783.874084 C 1998.236694 782.299683 1991.936523 779.475708 1988.235596 777.598572 C 1984.534668 775.721497 1978.581421 772.292419 1975.00647 769.978516 C 1971.431396 767.664551 1966.13147 763.754272 1963.228882 761.28894 C 1960.326172 758.823669 1957.13208 756.592346 1956.130981 756.330566 C 1955.026611 756.041809 1951.006226 758.007996 1945.908569 761.329956 C 1941.287354 764.341431 1932.674805 769.362 1926.769409 772.486877 C 1920.864136 775.611694 1911.683838 779.944641 1906.368896 782.115601 C 1901.054077 784.28656 1891.710693 787.373413 1885.606079 788.97522 C 1879.501587 790.576965 1869.889282 792.600281 1864.245728 793.471313 C 1858.602051 794.342346 1847.721802 795.063782 1840.067383 795.074524 C 1832.412964 795.085205 1823.154541 794.572327 1819.493164 793.934753 C 1815.831787 793.297241 1810.249512 791.992554 1807.088257 791.0354 C 1803.92688 790.078308 1798.151245 787.619507 1794.253418 785.57135 C 1790.355713 783.523193 1784.386597 779.331726 1780.988892 776.257019 C 1777.590942 773.182312 1772.963867 768.220154 1770.706177 765.22998 C 1768.448486 762.239807 1766.0271 759.572998 1765.325439 759.303772 C 1764.623779 759.034546 1760.55249 761.635437 1756.278076 765.083557 C 1752.003784 768.531677 1744.789429 773.782532 1740.24646 776.752075 C 1735.703369 779.72168 1728.181152 783.93457 1723.530396 786.114136 C 1718.879517 788.29364 1711.571655 791.011414 1707.290649 792.153564 C 1702.02417 793.558594 1695.066162 794.398071 1685.775513 794.749268 C 1674.012207 795.193909 1670.699707 794.957642 1662.663818 793.10083 C 1657.504517 791.908752 1649.963501 789.342407 1645.90564 787.397888 C 1641.848022 785.453369 1636.498169 782.249939 1634.017334 780.279175 C 1631.536377 778.308411 1626.579468 773.851807 1623.002075 770.37561 L 1616.497559 764.055176 L 1604.629517 770.635071 C 1598.102051 774.254028 1587.304199 779.401489 1580.634033 782.073853 C 1573.964111 784.746216 1563.106689 788.324768 1556.506836 790.026184 C 1549.90686 791.7276 1540.006836 793.615906 1534.506836 794.222351 C 1528.526367 794.881836 1516.668579 795.094971 1505.006836 794.752625 C 1490.718628 794.333191 1482.897949 793.617676 1475.745483 792.075562 C 1470.376831 790.91803 1461.82666 788.578918 1456.745361 786.877563 C 1451.664185 785.176208 1443.906616 781.975891 1439.506592 779.765869 C 1435.106567 777.555786 1429.020264 774.060303 1425.981567 771.998047 C 1422.942871 769.935852 1416.980347 765.00238 1412.731689 761.03479 C 1408.483154 757.067139 1402.234253 750.152771 1398.845215 745.669434 C 1395.456299 741.186096 1390.542358 733.063599 1387.925171 727.619446 L 1383.16687 717.721008 L 1375.492554 733.11969 C 1371.271606 741.588928 1365.859375 751.668396 1363.465454 755.518433 C 1361.071289 759.368469 1356.951172 765.092651 1354.30957 768.238831 C 1351.667847 771.38501 1346.672241 776.216125 1343.20813 778.974731 C 1339.744019 781.733276 1333.669189 785.534546 1329.708252 787.421875 C 1325.747437 789.309204 1318.392334 791.849976 1313.363525 793.067993 C 1305.408569 794.994812 1302.419067 795.213928 1290.363525 794.754089 C 1282.370361 794.449158 1274.040649 793.544067 1270.678833 792.615173 C 1267.473389 791.729553 1262.387207 789.839478 1259.375977 788.4151 C 1256.068359 786.850342 1250.780518 782.787292 1246.016846 778.150024 C 1239.645142 771.94751 1237.352905 768.848206 1234.070923 761.997742 C 1231.807007 757.272583 1229.012817 749.126038 1227.75769 743.591248 C 1225.816772 735.032776 1225.505737 730.821472 1225.505493 713.091309 C 1225.505249 701.777527 1225.874146 687.12085 1226.325195 680.520813 C 1227.021973 670.325562 1226.938843 668.746399 1225.77356 670.020813 C 1225.019043 670.845825 1221.359131 676.612244 1217.640259 682.835144 C 1213.921509 689.057983 1208.116211 698.012024 1204.73938 702.733032 C 1201.362671 707.453979 1194.262207 716.087769 1188.960571 721.919128 C 1183.658936 727.750488 1174.861572 736.631165 1169.410889 741.653931 C 1163.960083 746.676636 1155.384521 753.876831 1150.354126 757.654236 C 1145.323608 761.431641 1137.57959 766.680298 1133.145142 769.31781 C 1128.710693 771.955383 1120.903076 776.082397 1115.794556 778.488953 C 1110.686157 780.895508 1101.907837 784.455322 1096.286987 786.399658 C 1090.666138 788.343994 1080.991211 790.967285 1074.787109 792.229187 C 1065.094238 794.200745 1060.481445 794.523682 1042.006836 794.523987 C 1025.415527 794.524292 1018.337891 794.11084 1011.006836 792.713074 C 1005.78186 791.716797 996.838867 789.34845 991.133545 787.449951 C 985.428284 785.551453 977.152283 782.121094 972.742371 779.826904 C 968.332581 777.532776 962.130798 773.74646 958.960754 771.412842 C 955.79071 769.079285 950.104614 764.25293 946.325012 760.687561 C 942.54541 757.122192 937.664917 751.695618 935.479492 748.628601 C 933.044678 745.211487 930.925171 743.199036 930.005981 743.43158 C 929.180969 743.640259 923.55603 746.826294 917.506104 750.511658 C 911.456177 754.197021 899.981262 760.488586 892.006348 764.492981 C 884.031433 768.497375 872.301941 773.829041 865.940796 776.341187 C 859.579712 778.853333 849.064392 782.518555 842.573547 784.486206 C 836.082581 786.453796 825.312195 789.158447 818.639343 790.496582 C 811.966492 791.834656 801.78186 793.392334 796.006836 793.95813 C 790.231812 794.523926 781.231873 795.117554 776.006897 795.277344 C 770.781921 795.437195 760.206909 795.271851 752.506897 794.910034 C 744.806824 794.548218 733.331848 793.318298 727.006836 792.17688 C 720.681763 791.035522 710.885986 788.728882 705.238281 787.050964 C 699.590698 785.373047 690.928467 782.257996 685.989014 780.128601 C 681.049561 777.999146 673.607971 774.311523 669.452148 771.933838 C 665.296265 769.556152 657.983337 764.398438 653.201111 760.472229 C 648.418884 756.546021 641.989746 750.453125 638.914124 746.932373 C 635.838562 743.411682 631.600525 738.056091 629.49646 735.031128 C 627.392334 732.006165 624.920105 728.717651 624.002625 727.723389 C 622.406311 725.993469 622.086975 726.107361 616.589783 730.367371 C 613.430237 732.815857 605.757935 738.689087 599.540161 743.419006 C 593.322327 748.148926 583.905762 754.73999 578.61438 758.065796 C 573.322998 761.391663 563.48407 766.876587 556.750122 770.254578 C 550.016174 773.632507 540.810608 777.852661 536.293274 779.632568 C 531.776001 781.412537 524.125977 783.987549 519.293396 785.354858 C 514.460754 786.722168 507.320251 788.547302 503.425598 789.410706 C 499.531006 790.274109 491.881012 791.677917 486.425659 792.530212 C 480.970306 793.382446 466.381866 794.368103 454.006866 794.720459 C 439.703461 795.127747 426.588928 794.936035 418.006866 794.194153 C 410.581848 793.552307 397.914642 791.688904 389.857483 790.053162 C 381.800354 788.41748 367.850281 784.63092 358.857361 781.638611 C 349.86441 778.64624 334.856506 773.088562 325.506439 769.288147 C 316.156342 765.487732 296.356232 757.144714 281.506104 750.748108 C 266.656006 744.351563 252.403091 738.340698 249.832977 737.390747 C 245.160049 735.663574 245.160049 735.663574 233.766525 746.60083 C 227.500061 752.616394 218.128006 760.560242 212.939728 764.253906 C 207.751434 767.947571 198.243713 773.699585 191.811478 777.036194 C 185.379242 780.372742 174.804321 784.832886 168.311646 786.947571 C 161.818985 789.062317 152.006821 791.63562 146.506836 792.666077 C 138.56572 794.153931 131.762497 794.539734 113.463326 794.540039 C 92.945663 794.540405 89.273598 794.283875 79.963287 792.199707 C 74.212212 790.912292 65.296448 788.109619 60.15049 785.971558 C 55.004528 783.833496 47.076221 779.610474 42.532036 776.586914 C 37.899025 773.504395 30.688898 767.306763 26.117388 762.477478 C 19.750336 755.751343 16.996965 751.858765 13.545233 744.703552 C 11.114418 739.664612 8.397549 732.676453 7.507745 729.174255 C 6.399879 724.813843 5.897025 718.509583 5.912457 709.174316 C 5.931028 697.940491 6.380327 693.78241 8.466038 685.54187 C 9.858112 680.04187 13.046603 671.291931 15.551573 666.097534 C 18.056543 660.903198 22.065159 653.928162 24.459604 650.597412 C 26.854052 647.266663 33.023979 640.372803 38.170555 635.277771 C 43.317131 630.182739 50.979191 623.432617 55.197357 620.277466 C 59.41552 617.122375 67.287407 612.203491 72.69043 609.346619 C 78.093468 606.489746 87.062386 602.327454 92.621384 600.097107 C 98.180382 597.866699 107.852959 594.685791 114.11599 593.02832 C 120.379028 591.37085 132.466537 589.109558 140.977127 588.003174 C 149.487717 586.896851 156.790527 585.652039 157.205627 585.236938 C 157.620697 584.821838 161.303436 570.77002 165.389465 554.01062 C 169.47551 537.251221 176.702972 507.113983 181.4505 487.038879 C 186.198044 466.963776 194.372696 433.213654 199.616409 412.038574 C 204.860123 390.863495 211.770798 365.663361 214.973465 356.0383 C 218.176117 346.413239 223.11409 333.138123 225.946732 326.538116 C 228.779373 319.93808 234.248535 308.510559 238.100433 301.143616 C 241.952316 293.776733 248.898026 281.951599 253.535324 274.86554 C 258.172607 267.779419 265.329773 257.540833 269.440125 252.113098 C 273.550446 246.685364 281.705902 236.995911 287.563324 230.580933 C 293.420807 224.165894 304.348297 213.291077 311.846649 206.414673 C 319.345001 199.538208 330.7677 190.227417 337.230408 185.723999 C 343.693115 181.220581 352.921722 175.14679 357.738373 172.226746 C 362.555084 169.306702 372.763733 163.794495 380.424225 159.977478 C 388.084778 156.160339 400.181244 150.765808 407.305298 147.989441 C 414.429321 145.213074 426.359283 141.157349 433.816315 138.976624 C 441.273346 136.795898 455.051727 133.454773 464.434937 131.551819 C 474.485504 129.51355 487.864014 127.603149 496.995331 126.902344 C 506.559631 126.168213 520.728638 125.944946 533.9953 126.319214 C 545.820313 126.652832 560.092957 127.641663 565.712219 128.516541 C 571.331543 129.391541 581.470642 131.626038 588.243591 133.482117 C 595.016541 135.338257 604.706116 138.645142 609.776001 140.830811 C 614.845886 143.016418 622.284119 146.687073 626.305359 148.987793 C 630.326538 151.288452 636.704895 155.483521 640.479492 158.310181 C 644.254089 161.136841 650.411499 166.549133 654.162659 170.337585 C 657.913818 174.125977 663.193298 180.177063 665.894897 183.784302 C 668.596436 187.391602 672.924805 194.359863 675.513489 199.269287 C 678.102112 204.178711 681.758301 212.010071 683.638428 216.672363 C 685.518433 221.334595 688.206543 229.734863 689.612061 235.3396 C 691.786316 244.010193 692.250366 248.586121 692.723633 266.021545 C 693.173462 282.593994 692.942383 288.809814 691.51532 298.521576 C 690.5448 305.126282 688.456177 315.930145 686.873962 322.530151 C 685.291748 329.130157 682.586731 338.5802 680.862915 343.530243 C 679.139038 348.480286 675.546143 357.195435 672.87854 362.897278 C 670.21106 368.599091 665.455017 377.132019 662.309692 381.859436 C 659.164307 386.586761 653.93103 393.545105 650.680115 397.322327 C 647.42926 401.099609 641.333923 406.924225 637.134888 410.26593 C 632.935913 413.607605 625.000366 418.526825 619.500427 421.19751 C 614.000427 423.868134 606.350464 426.715607 602.500549 427.525116 C 598.32782 428.402527 590.047913 428.997101 582.000549 428.997223 C 573.995789 428.997375 565.70343 428.404907 561.628906 427.541718 C 557.849426 426.741058 551.004578 424.269684 546.417969 422.049713 C 540.253479 419.066071 536.230103 416.19046 530.989868 411.022583 C 525.792786 405.897369 522.988464 402.097076 520.481995 396.78241 C 518.601563 392.795258 516.373779 386.851013 515.531372 383.573029 C 514.688904 380.294952 514.009338 373.769958 514.021118 369.073059 C 514.032959 364.376099 514.899231 356.708099 515.946228 352.033112 C 516.993164 347.358093 519.921082 337.007996 522.452698 329.03299 C 524.984253 321.057953 528.21283 310.120972 529.627319 304.728607 C 531.667175 296.952026 532.126465 293.160675 531.848511 286.396545 C 531.514221 278.264832 531.349915 277.736511 528.31134 275.021667 C 526.282227 273.208679 523.471375 271.926636 520.573181 271.492065 C 518.069824 271.116699 508.028778 271.023682 498.259735 271.285217 C 484.505127 271.653564 478.692932 272.238831 472.497864 273.879211 C 468.0979 275.04425 459.070313 278.678589 452.436554 281.955444 C 443.806335 286.218536 438.124969 289.858917 432.465118 294.75238 C 428.114594 298.513855 421.432465 305.178711 417.615906 309.563171 C 413.799408 313.947632 407.575317 322.259949 403.784668 328.035034 C 399.993988 333.81012 394.022125 344.385193 390.513855 351.535278 C 387.005585 358.685364 382.118744 370.1604 379.654175 377.035461 C 377.189636 383.910492 372.003052 400.335571 368.128448 413.535645 C 364.253876 426.735718 357.716797 449.460815 353.601746 464.035919 C 349.486633 478.610992 342.684814 502.911102 338.486572 518.036133 C 334.28833 533.161255 327.247894 558.05957 322.841125 573.365723 C 318.434357 588.671997 315.092194 601.458557 315.414001 601.780396 C 315.73584 602.102173 336.137756 607.245361 360.751526 613.209656 C 385.365356 619.17395 416.528961 626.636841 430.004028 629.793945 C 454.50412 635.53418 454.50412 635.53418 478.512421 635.533752 C 494.654022 635.533447 504.647827 635.095093 509.01239 634.19574 C 512.582825 633.460083 519.554016 631.56073 524.504028 629.975037 C 529.453979 628.389343 537.103943 625.342224 541.503906 623.203674 C 545.90387 621.065125 553.553772 616.591614 558.503723 613.262512 C 563.453674 609.933411 571.929626 603.457153 577.339294 598.870728 C 582.748901 594.284363 590.826111 587.734131 595.288574 584.314697 C 599.751099 580.895264 606.039063 576.692017 609.26178 574.974243 C 613.341248 572.799866 615.544678 570.891052 616.514709 568.691162 C 617.281128 566.953247 619.693542 560.960632 621.875793 555.374207 C 624.057922 549.787781 629.333008 538.327271 633.598206 529.906494 C 637.863281 521.485596 644.839844 509.406158 649.101501 503.063263 C 653.36322 496.720367 659.906433 487.705597 663.641846 483.030548 C 667.37738 478.355499 676.298767 468.643311 683.467285 461.447876 C 690.635742 454.252502 701.135132 444.922424 706.799255 440.714478 C 712.463379 436.5065 721.238281 430.601563 726.299072 427.592377 C 731.359802 424.583191 741.125366 419.432404 748.000305 416.14621 C 754.875244 412.859955 764.360596 408.829041 769.078796 407.188507 C 773.796997 405.548035 782.796997 403.065765 789.078674 401.672424 C 795.360474 400.278992 804.869751 398.663971 810.210571 398.083435 C 815.551392 397.502838 824.326416 397.031433 829.710571 397.035858 C 835.094788 397.040283 843.549988 397.505524 848.5 398.069763 C 853.450012 398.634003 861.440613 400.018402 866.256836 401.146179 C 871.931946 402.475067 879.14624 405.277252 886.756958 409.108826 C 893.215759 412.360565 901.413635 417.396484 904.974365 420.299805 C 908.535095 423.203186 914.085327 428.716827 917.308167 432.552338 C 920.531006 436.387909 925.042847 442.855927 927.334412 446.925751 C 929.626038 450.995544 931.950989 454.29776 932.500977 454.263885 C 933.050964 454.230042 935.125732 448.844635 937.11145 442.296326 C 939.097168 435.748016 943.51886 421.691589 946.937439 411.059875 C 950.355957 400.428101 956.43634 382.458466 960.449341 371.12735 C 964.462341 359.796204 971.461914 341.300232 976.003967 330.025146 C 980.546021 318.750031 988.160461 301.199921 992.924927 291.024841 C 997.689392 280.849792 1007.627197 260.639343 1015.008911 246.112854 C 1022.390686 231.586304 1032.132813 213.503174 1036.658203 205.928162 C 1041.183594 198.353088 1047.842163 187.657593 1051.4552 182.1604 C 1055.068359 176.663147 1061.688232 167.070984 1066.16626 160.84436 C 1070.644287 154.617859 1077.932495 145.023376 1082.362427 139.523315 C 1086.79248 134.023254 1095.609375 124.172791 1101.955933 117.633484 C 1108.302368 111.094116 1116.706787 102.983276 1120.632324 99.609375 C 1124.557861 96.235413 1131.681274 90.845093 1136.461914 87.630859 C 1141.242554 84.416687 1149.28064 79.633545 1154.324219 77.001709 C 1159.367798 74.369873 1167.812256 70.616455 1173.0896 68.660645 C 1178.367065 66.704895 1187.500977 64.135315 1193.387085 62.9505 C 1202.613159 61.093506 1206.461304 60.858643 1221.291626 61.24762 C 1237.983887 61.685486 1238.782104 61.804321 1248.201294 65.254272 C 1253.540283 67.209656 1261.042114 70.8927 1264.871948 73.438721 C 1268.701782 75.984802 1275.013428 81.245789 1278.897705 85.129883 C 1282.78186 89.013977 1288.018677 95.495056 1290.535156 99.532349 C 1293.051514 103.56958 1296.636719 110.618286 1298.502197 115.196167 C 1300.367676 119.773987 1302.601929 126.219482 1303.467163 129.51947 C 1304.33252 132.819458 1305.552612 139.569458 1306.178711 144.519409 C 1306.884766 150.102173 1307.094482 160.353821 1306.731079 171.519409 C 1306.408813 181.419434 1305.385254 193.794495 1304.456421 199.01947 C 1303.527588 204.244446 1301.270142 214.594543 1299.439941 222.019531 C 1297.609741 229.44458 1294.262085 241.281677 1292.000732 248.324158 C 1289.739258 255.366699 1285.502441 267.066772 1282.585571 274.324341 C 1279.668579 281.581909 1274.325317 293.595001 1270.711548 301.02005 C 1267.0979 308.445099 1261.384521 319.430237 1258.015137 325.431519 C 1254.645752 331.432739 1247.580688 342.907837 1242.314941 350.931793 C 1237.049194 358.955688 1228.900391 370.69577 1224.206665 377.020844 C 1219.512817 383.345947 1211.165283 394.079987 1205.656494 400.874207 C 1198.446777 409.766357 1195.901001 413.597992 1196.570313 414.550018 C 1197.081909 415.277435 1201.144409 418.587952 1205.598145 421.906677 C 1210.052124 425.225433 1216.418457 430.850769 1219.745483 434.407349 C 1223.072632 437.963928 1227.824829 443.719391 1230.305786 447.197266 C 1232.786865 450.67511 1236.709106 457.030212 1239.022217 461.319611 C 1241.335327 465.60907 1244.682251 472.583984 1246.459839 476.819489 C 1248.237549 481.054993 1251.195679 490.038818 1253.033691 496.7836 C 1254.871704 503.52832 1256.704346 508.703278 1257.106079 508.283539 C 1257.507935 507.863708 1260.380737 498.070221 1263.490234 486.520172 C 1266.599487 474.970123 1271.61499 457.195007 1274.635742 447.019989 C 1277.656616 436.84494 1283.081299 419.519836 1286.690796 408.519775 C 1290.300293 397.519714 1296.395996 379.744568 1300.236938 369.019531 C 1304.077881 358.294495 1310.348633 341.654846 1314.171875 332.042542 C 1317.995117 322.430298 1324.118164 307.58017 1327.778442 299.042328 C 1331.438843 290.504456 1340.834839 270.693848 1348.658569 255.018677 C 1356.482178 239.343567 1366.10083 220.893372 1370.033203 214.018311 C 1373.965698 207.14325 1380.822266 195.668152 1385.27002 188.518066 C 1389.717896 181.367981 1396.947144 170.342896 1401.334961 164.017761 C 1405.722778 157.692688 1413.368408 147.34259 1418.325317 141.017517 C 1423.282104 134.692383 1431.309937 125.197998 1436.164917 119.918884 C 1441.019775 114.639648 1449.301636 106.539551 1454.569092 101.918518 C 1459.836426 97.297546 1468.237427 90.710815 1473.237427 87.281494 C 1478.237671 83.852112 1486.27478 79.008118 1491.097656 76.51709 C 1495.920532 74.026062 1503.862793 70.444519 1508.746704 68.558228 C 1513.630859 66.671875 1522.268188 64.182556 1527.940796 63.02655 C 1535.667236 61.451782 1541.921875 60.927185 1552.874268 60.935059 C 1564.281372 60.943359 1569.252197 61.393982 1575.494263 62.985535 C 1579.894287 64.107483 1587.544312 66.997986 1592.494385 69.408936 C 1597.444336 71.819946 1604.178711 75.986938 1607.459595 78.668945 C 1610.740479 81.351013 1615.915527 86.515686 1618.959717 90.146057 C 1622.004028 93.776428 1626.186035 99.797791 1628.253174 103.526855 C 1630.320313 107.256042 1633.550293 114.178589 1635.430908 118.9104 C 1637.311523 123.642212 1639.563232 130.888672 1640.434937 135.013672 C 1641.306396 139.138611 1642.299683 150.163635 1642.641968 159.513611 C 1643.167725 173.875549 1642.935669 178.763733 1641.146484 191.013611 C 1639.981567 198.988647 1637.478027 211.813721 1635.583008 219.513733 C 1633.687866 227.213806 1630.708252 237.788818 1628.961548 243.013855 C 1627.214966 248.238831 1624.039551 256.934204 1621.905151 262.336792 C 1619.770752 267.73938 1615.300049 277.864441 1611.970459 284.836975 C 1608.640869 291.809479 1602.937744 302.914337 1599.296997 309.514374 C 1595.656006 316.11441 1588.795654 327.589569 1584.051636 335.014618 C 1579.307495 342.439697 1571.227051 354.364838 1566.094971 361.514923 C 1560.962891 368.665039 1553.329468 378.911835 1549.131958 384.285675 C 1544.934326 389.659454 1541.365967 394.449219 1541.202148 394.929504 C 1541.038208 395.40979 1544.188232 396.103271 1548.202148 396.47052 C 1552.215942 396.837738 1559.324951 397.610809 1564 398.188385 C 1568.675049 398.76593 1576.099976 400.366028 1580.500122 401.743988 C 1584.900146 403.12204 1591.029175 405.52359 1594.120239 407.08075 C 1597.211304 408.637939 1603.061279 412.565765 1607.120483 415.809326 C 1611.179443 419.052856 1616.836548 424.195953 1619.691772 427.238373 C 1622.547119 430.280823 1626.901978 435.890656 1629.369385 439.704773 C 1631.836792 443.518799 1635.427002 450.436096 1637.347778 455.076508 C 1639.268433 459.716919 1641.526001 467.113617 1642.36438 471.513611 C 1643.202881 475.913635 1644.251831 482.160614 1644.69519 485.395844 C 1645.501587 491.278168 1645.501587 491.278168 1655.501221 470.98526 C 1661.001099 459.824158 1668.556641 446.036713 1672.29126 440.346588 C 1676.025879 434.656464 1682.156372 426.925964 1685.914551 423.167725 C 1689.672607 419.409454 1695.616821 414.455078 1699.123779 412.157959 C 1702.630859 409.86084 1708.976929 406.636871 1713.226318 404.99353 C 1717.475708 403.350281 1724.900635 400.994629 1729.726196 399.75882 C 1737.133423 397.861908 1741.147827 397.511902 1755.5 397.511658 C 1765.76062 397.511475 1775.076782 398.040375 1779 398.845795 C 1782.574951 399.579742 1788.538696 401.773407 1792.252563 403.720673 C 1796.588135 405.993988 1801.116943 409.518799 1804.905762 413.568909 C 1808.822021 417.755249 1811.560791 421.832947 1813.049316 425.693665 C 1814.494873 429.442841 1815.459351 434.575989 1815.762695 440.13385 C 1816.081299 445.969482 1815.687866 451.464966 1814.545532 457.133881 C 1813.61731 461.741119 1810.489502 471.585724 1807.594971 479.010773 C 1804.700439 486.435791 1797.277588 504.795197 1791.100098 519.809326 C 1784.922485 534.823547 1780.046387 547.642761 1780.264282 548.296509 C 1780.4823 548.950317 1781.828979 547.69104 1783.25708 545.498169 C 1784.685181 543.305298 1789.907227 533.861084 1794.861938 524.510986 C 1799.816528 515.160889 1808.003418 498.735718 1813.055298 488.010681 C 1818.107056 477.285614 1825.821655 461.40802 1830.198853 452.727295 C 1834.930542 443.343292 1840.486206 434.013306 1843.901367 429.715637 C 1847.060547 425.73999 1852.312622 420.108429 1855.572754 417.20108 C 1859.258179 413.914337 1865.692627 409.837646 1872.583984 406.422852 C 1879.949219 402.773315 1886.443237 400.35675 1891.94043 399.21994 C 1897.690186 398.030884 1904.986572 397.509064 1915.864868 397.508881 C 1924.793457 397.508728 1934.305054 398.071014 1938.008301 398.817963 C 1941.578735 399.538116 1947.316406 401.428619 1950.758667 403.019165 C 1954.200806 404.609741 1959.432251 408.194977 1962.383789 410.986359 C 1965.335205 413.77774 1969.109863 418.636993 1970.771484 421.784729 C 1972.43335 424.932465 1974.356689 430.074768 1975.045654 433.212036 C 1975.792236 436.611176 1976.058838 441.662445 1975.705444 445.712006 C 1975.37915 449.449768 1974.001221 456.782898 1972.643188 462.007904 C 1971.285278 467.23291 1967.638672 478.932983 1964.539673 488.008057 C 1961.440674 497.083099 1958.640503 505.858124 1958.317139 507.508148 C 1957.884766 509.713501 1960.515503 506.799744 1968.249268 496.507996 C 1974.035522 488.807861 1982.67334 478.232697 1987.44458 473.00766 C 1992.215698 467.782593 2000.480103 459.520721 2005.810059 454.648071 C 2011.139893 449.77536 2018.885498 443.195709 2023.022461 440.026642 C 2027.159424 436.857483 2033.992798 432.013184 2038.207642 429.261475 C 2042.422729 426.509827 2050.287842 421.991364 2055.686035 419.220581 C 2061.08374 416.449738 2070.225342 412.301392 2076.000244 410.001984 C 2081.775146 407.702545 2092.574951 404.263763 2100 402.360199 C 2109.370605 399.957825 2117.476563 398.609955 2126.5 397.953857 C 2133.649902 397.43396 2144.899902 397.275391 2151.5 397.60144 C 2158.100098 397.927551 2167.152832 399.028961 2171.617432 400.049072 C 2176.081787 401.069153 2183.731934 403.631409 2188.617676 405.742889 C 2193.50293 407.85437 2201.100342 412.011108 2205.500244 414.980133 C 2209.900146 417.949127 2215.888916 422.856354 2218.807861 425.88501 C 2221.727051 428.913696 2226.383545 434.791779 2229.155273 438.94751 C 2231.927002 443.103271 2234.512451 446.623749 2234.900146 446.770844 C 2235.288086 446.917908 2238.840576 436.690369 2242.794434 424.042847 C 2246.748291 411.395386 2253.186523 391.924927 2257.101563 380.775146 C 2261.016602 369.625427 2267.390869 352.402832 2271.266602 342.502747 C 2275.142334 332.602661 2281.778809 316.402588 2286.014648 306.502502 C 2290.25 296.602386 2297.856201 279.848755 2302.917236 269.272156 C 2307.978027 258.695618 2316.18335 242.270447 2321.150879 232.771851 C 2326.118896 223.273254 2333.915039 209.20166 2338.47583 201.501587 C 2343.036865 193.801514 2350.461426 181.915405 2354.974609 175.087952 C 2359.488281 168.260559 2367.199707 157.352539 2372.111328 150.8479 C 2377.022949 144.343323 2384.50293 134.854248 2388.733398 129.760986 C 2392.964111 124.667725 2400.701172 116.27832 2405.927734 111.117798 C 2411.153809 105.957214 2418.369629 99.375488 2421.962402 96.49176 C 2425.554932 93.608032 2431.869629 88.99939 2435.994629 86.250427 C 2440.119629 83.501465 2448.112061 78.93866 2453.756104 76.11084 C 2459.399902 73.283081 2467.367432 69.638672 2471.46167 68.012268 C 2475.555908 66.385864 2483.465088 64.125793 2489.03833 62.989929 C 2496.567383 61.455505 2503.007568 60.920349 2514.0979 60.907593 C 2524.050293 60.896118 2530.935303 61.38208 2534.759277 62.365906 C 2537.91333 63.177429 2543.782227 65.063293 2547.80127 66.55658 C 2551.819824 68.049805 2557.89502 71.059998 2561.30127 73.245789 C 2564.70752 75.431519 2571.31958 81.141724 2575.994629 85.93512 C 2580.669678 90.728455 2585.993652 97.172546 2587.825439 100.255188 C 2589.657227 103.337952 2592.735352 109.513 2594.665771 113.9776 C 2596.595947 118.442261 2599.372559 126.910583 2600.835449 132.796082 C 2603.31958 142.789307 2603.495605 144.984985 2603.496094 165.997009 C 2603.496338 186.739136 2603.271973 189.629883 2600.625488 202.99707 C 2599.046631 210.972046 2595.980225 223.572144 2593.811523 230.997192 C 2591.642822 238.42218 2587.598877 250.572266 2584.824707 257.997314 C 2582.050781 265.422363 2576.26001 278.69751 2571.956055 287.497559 C 2567.652588 296.297607 2560.442139 309.797729 2555.933105 317.497833 C 2551.424316 325.197906 2544.283447 336.673004 2540.064209 342.998108 C 2535.845215 349.323181 2528.27002 360.123291 2523.230713 366.998383 C 2518.191162 373.873474 2511.291016 383.098572 2507.896973 387.498657 L 2501.726318 395.498749 Z"/>
        <path id="Lebkuchen-text" fill="#e92064" stroke="none" d="M 1359.643433 592.418518 C 1371.163086 574.918335 1381.502808 556.678101 1393.642456 539.587891 C 1417.641846 505.917542 1444.841309 475.587036 1480.060913 453.216431 C 1493.060791 444.966217 1506.500732 437.756012 1521.240601 433.215729 C 1535.262329 428.698944 1550.198486 427.800873 1564.660645 430.60498 C 1588.970581 435.384552 1607.380981 455.134216 1611.60144 480.494202 C 1614.941772 500.554138 1610.962036 519.654175 1604.282471 538.314331 C 1593.552856 568.264404 1575.283447 592.834778 1550.053589 612.22522 C 1536.526855 622.514771 1522.063477 631.511169 1506.854126 639.095947 C 1499.774292 642.676086 1499.854248 642.796082 1501.004395 650.58606 C 1503.804688 669.335999 1518.074829 682.415771 1537.554932 684.455383 C 1554.194946 686.195129 1569.194824 681.774841 1583.184692 673.084595 C 1593.974609 666.374451 1603.184448 657.58429 1613.384399 650.084106 C 1628.384155 639.083862 1636.183838 625.253784 1640.303589 606.883606 C 1651.302734 557.883423 1670.751953 511.883118 1693.611206 467.282745 C 1697.742432 458.892975 1703.244507 451.251343 1709.890869 444.672485 C 1714.020752 440.672424 1718.520752 437.182343 1723.890625 435.142212 C 1739.42041 429.141937 1755.490479 427.141663 1771.890625 430.141388 C 1781.820557 431.971222 1785.230713 437.081146 1784.150879 447.231201 C 1783.510986 453.291199 1780.94104 458.77124 1778.781128 464.341278 C 1767.781616 492.571442 1754.6521 519.921753 1744.782593 548.611877 C 1735.363037 575.992004 1725.093506 603.092163 1718.703979 631.422302 C 1717.395752 637.282959 1716.917847 643.298584 1717.284424 649.292358 C 1717.834473 658.362305 1723.414673 662.292236 1732.284546 660.052063 C 1736.554443 658.961975 1740.114502 656.431946 1743.544434 653.761841 C 1754.434204 645.301697 1763.374146 634.981506 1771.613892 624.041382 C 1797.773315 589.290894 1818.612671 551.340576 1837.611938 512.360291 C 1844.945068 497.400116 1852.001465 482.320068 1858.78125 467.119934 C 1872.100708 437.399658 1892.220459 424.799347 1931.120605 430.118683 C 1941.630615 431.558502 1944.960571 436.278412 1943.330811 446.688416 C 1942.041016 454.928467 1939.131104 462.778503 1936.411255 470.688538 C 1922.411987 511.298828 1905.41272 550.789063 1890.41333 591.039307 C 1883.413696 609.749451 1876.414063 628.459534 1870.974243 647.699646 C 1869.34436 653.479675 1867.864502 659.299744 1867.974609 665.359741 C 1868.134888 680.219727 1877.255005 687.439514 1891.655029 683.909302 C 1898.164917 682.319153 1904.084839 679.189087 1909.724731 675.578979 C 1922.414673 667.45874 1933.524536 657.368591 1944.944336 647.658386 C 1948.384277 644.728333 1948.944336 641.178345 1949.364136 637.078308 C 1956.363037 570.48822 1984.182129 514.627686 2035.571289 471.236847 C 2059.35083 451.156433 2086.440674 437.235992 2117.260498 431.365448 C 2133.760498 428.225159 2150.320557 427.504822 2166.790527 431.814545 C 2192.270752 438.484161 2209.180908 457.343842 2211.241455 483.413818 C 2213.621826 513.533813 2205.592285 540.833862 2185.792969 564.144226 C 2178.262939 573.004333 2168.943115 579.144531 2157.303223 581.414734 C 2150.724365 582.708984 2143.920898 582.253906 2137.573242 580.095032 C 2127.453125 576.675232 2123.072998 568.915283 2124.802734 558.285278 C 2126.092529 550.285278 2129.452393 543.015198 2132.732422 535.745178 C 2135.62207 529.335083 2138.252197 522.845093 2139.191895 515.865112 C 2140.731934 504.38501 2134.95166 498.125092 2123.271729 498.375305 C 2114.271729 498.56546 2106.431641 502.105621 2099.151855 506.995758 C 2090.297852 513.00354 2082.575928 520.529541 2076.342041 529.226135 C 2053.072998 561.226501 2041.343384 596.986694 2041.464111 636.58667 C 2041.441528 639.598511 2041.652222 642.607422 2042.094238 645.58667 C 2046.094727 670.776611 2062.094727 685.726379 2087.63501 688.355957 C 2105.935547 690.200684 2124.413574 687.713318 2141.574951 681.094971 C 2172.284668 669.574463 2198.724365 651.354004 2223.393799 630.093567 C 2228.063965 626.093506 2228.323975 620.833496 2229.273682 615.773438 C 2233.733398 591.883362 2237.952881 567.943298 2243.532471 544.283264 C 2267.130615 444.142822 2298.658936 346.782288 2345.94751 255.051514 C 2365.376709 217.371155 2387.446289 181.30072 2415.035645 148.88031 C 2427.185303 134.610107 2440.775146 121.879883 2456.525146 111.569519 C 2471.814941 101.569275 2488.334717 94.898926 2506.624512 93.17865 C 2533.624512 90.638306 2553.434814 101.447876 2564.325195 124.997742 C 2573.525635 144.907471 2573.666016 165.797485 2570.64624 186.757629 C 2563.866943 233.757751 2544.517822 275.958069 2519.398438 315.758453 C 2496.39917 352.24884 2468.819824 385.21936 2439.790283 416.999817 C 2408.071045 451.730408 2374.321533 484.440979 2339.791992 516.291626 C 2336.272217 519.531616 2333.4021 522.781738 2332.432129 527.69165 C 2328.352539 548.251709 2324.052979 568.771851 2319.873291 589.321899 C 2319.772705 590.589905 2319.772705 591.863892 2319.873291 593.131897 C 2323.873291 589.931763 2325.263184 585.841797 2327.363037 582.331787 C 2348.652588 546.721436 2372.691895 513.250977 2402.701416 484.330475 C 2423.251221 464.540161 2445.490967 447.199738 2472.390625 436.779297 C 2488.080322 430.699005 2504.090332 426.778748 2521.18042 430.058411 C 2538.270752 433.338165 2547.250732 443.608032 2547.581055 461.12796 C 2547.77124 471.597992 2545.151367 481.578033 2542.371582 491.528076 C 2532.752197 525.898254 2519.152588 558.84845 2506.463379 592.128662 C 2499.353516 610.788818 2492.043945 629.398926 2487.184326 648.81897 C 2485.867432 653.633423 2484.917969 658.540833 2484.344482 663.499023 C 2482.824951 679.499023 2491.905029 687.498901 2507.604736 683.998657 C 2512.795166 682.740906 2517.753418 680.668457 2522.294922 677.858398 C 2537.864502 668.608154 2551.224365 656.527893 2564.644043 644.527649 C 2567.154053 642.277649 2567.50415 639.597656 2567.724121 636.527588 C 2571.653076 582.127502 2591.912354 534.457214 2628.111572 493.836609 C 2657.03125 461.376068 2692.200684 438.905487 2735.69043 431.24472 C 2753.870361 428.034424 2772.110352 427.504089 2790.220459 432.243774 C 2819.580566 439.89328 2838.841309 463.452942 2839.511719 493.792969 C 2840.452393 536.462891 2823.362793 571.363159 2792.233398 599.793762 C 2770.453857 619.684082 2744.374023 632.144531 2717.044189 642.265015 C 2698.207031 649.074707 2678.979492 654.751831 2659.4646 659.265991 C 2663.804688 671.215942 2671.364746 679.425781 2682.314941 684.475647 C 2697.844971 691.645386 2714.315186 693.315063 2731.13501 691.404785 C 2760.505127 688.06427 2786.754883 675.923767 2812.19458 661.803345 C 2826.370361 653.78772 2839.856689 644.609375 2852.51416 634.362671 C 2856.498535 631.410828 2859.2229 627.064941 2860.143799 622.192566 C 2871.016113 569.980103 2888.327637 519.319092 2911.681152 471.371674 C 2914.760986 464.719635 2918.581787 458.436432 2923.071045 452.64151 C 2928.390625 446.051392 2934.62085 440.511292 2942.260742 436.941162 C 2958.048584 429.51712 2975.731201 427.105438 2992.93042 430.030304 C 3002.840576 431.620087 3005.170654 435.150085 3004.000732 445.190094 C 3003.220947 451.890106 3000.710938 458.090179 2998.191162 464.250183 C 2987.851807 489.510376 2977.37207 514.720581 2967.002441 539.970764 C 2961.172607 554.160828 2956.782959 568.840881 2952.353271 583.500977 C 2951.793213 585.360962 2951.583252 587.341003 2951.023438 590.170959 C 2955.363525 588.64093 2956.023193 585.170898 2957.533203 582.690857 C 2976.102783 551.750549 2996.532227 522.200195 3021.651611 496.109772 C 3041.651367 475.379425 3062.821045 456.219086 3088.86084 443.198639 C 3102.630859 436.30838 3116.860596 430.96817 3132.350586 429.197876 C 3141.312012 428.122833 3150.400635 429.097229 3158.93042 432.047394 C 3170.520752 436.107178 3176.61084 444.557098 3177.730957 456.667053 C 3178.661133 466.76709 3177.001465 476.577118 3174.411377 486.297119 C 3165.64209 519.187256 3152.982666 550.70752 3140.843262 582.417664 C 3132.043701 605.417847 3122.843994 628.288025 3116.844482 652.248108 C 3115.306152 658.402466 3114.849609 664.777344 3115.494629 671.088135 C 3116.324951 679.658142 3121.284912 684.088074 3129.934814 684.607849 C 3135.615234 684.838379 3141.262939 683.645447 3146.36499 681.137573 C 3156.474854 676.547424 3165.304688 670.037292 3173.834717 663.067139 C 3192.444336 647.876831 3209.834229 631.296509 3226.883789 614.436218 C 3230.883789 610.436157 3235.033691 606.56604 3240.213623 604.036011 C 3254.443359 597.035767 3265.483643 602.975586 3265.963867 618.595581 C 3266.634277 640.025513 3260.68457 659.595642 3245.625 675.375854 C 3222.658691 699.589417 3196.672607 720.746948 3168.305908 738.327209 C 3140.016113 755.747681 3109.376465 764.168213 3076.046387 762.448853 C 3070.057617 762.158813 3064.125244 761.151733 3058.376465 759.449097 C 3037.936035 753.349487 3025.555908 737.6297 3023.565674 715.3797 C 3022.065186 698.579773 3024.154785 682.169678 3028.834717 665.989624 C 3035.604248 642.619507 3044.124023 619.869385 3052.543457 597.079224 C 3057.743164 583.019165 3062.863037 568.939026 3066.392578 554.348999 C 3067.078857 551.779297 3067.52417 549.151306 3067.722656 546.498962 C 3068.112549 538.498962 3063.83252 535.499023 3056.402344 538.929199 C 3051.212402 541.319275 3047.08252 545.299316 3043.012695 549.269409 C 3027.422852 564.479675 3014.523193 581.869873 3002.293457 599.770081 C 2979.098633 633.594543 2959.404541 669.690674 2943.515381 707.501099 C 2938.515625 719.50116 2932.945801 731.211304 2925.695801 742.081421 C 2912.976318 761.161682 2894.276367 764.681946 2874.846436 761.782349 C 2864.966309 760.302429 2858.156006 753.782593 2854.176025 744.652649 C 2851.556152 738.513245 2849.997559 731.973755 2849.565674 725.312744 C 2849.315674 721.722778 2849.005615 718.142761 2848.725342 714.492737 C 2844.435303 713.4328 2842.145508 716.412903 2839.485596 718.032959 C 2813.805908 733.653381 2787.335938 747.513794 2758.016113 755.144348 C 2721.91626 764.554932 2685.65625 765.735596 2649.326172 756.706177 C 2620.986084 749.706665 2598.195801 734.607117 2582.765381 709.317322 C 2582.162842 708.512573 2581.493896 707.76001 2580.765381 707.067383 C 2577.415283 708.067444 2575.145264 710.637451 2572.575439 712.637512 C 2560.546631 722.138306 2547.986572 730.946106 2534.955811 739.018188 C 2520.956055 747.56842 2506.355957 754.078674 2489.786133 756.688965 C 2475.046387 758.999207 2460.786377 763.919495 2445.476318 762.539734 C 2438.83667 762.074097 2432.273193 760.842712 2425.91626 758.870056 C 2410.576172 753.800354 2400.516113 743.47052 2395.575684 728.160583 C 2390.635254 712.850708 2391.665039 697.240662 2394.504883 681.740601 C 2398.654541 659.030518 2407.054199 637.590393 2414.813721 615.980286 C 2421.553467 597.190125 2429.123047 578.679993 2434.282715 559.339905 C 2435.636963 554.886597 2436.593994 550.322083 2437.142334 545.699829 C 2437.672363 539.19989 2433.992432 536.429932 2427.732422 538.26001 C 2422.152344 539.900146 2417.912354 543.810181 2413.732666 547.630249 C 2404.713379 556.051147 2396.442627 565.239136 2389.013184 575.090698 C 2358.143555 615.181213 2333.45459 658.851685 2313.56543 705.302002 C 2308.695557 716.682068 2303.115479 727.642212 2294.915771 737.042358 C 2277.566162 756.942627 2255.286377 764.372986 2229.516357 762.123413 C 2218.64624 761.173645 2213.335938 755.403748 2210.885986 744.413818 C 2208.96582 735.823792 2210.195557 727.223816 2210.575684 718.353821 C 2206.075684 717.583862 2203.575684 720.773926 2200.655518 722.523926 C 2171.925781 739.90448 2141.395996 752.794983 2108.356201 759.195557 C 2079.486328 764.796082 2050.67627 764.30658 2022.296265 756.197021 C 1998.766113 749.457458 1979.615845 736.297791 1965.945557 715.64801 C 1961.945435 709.558105 1961.745361 709.578064 1955.705444 714.23822 C 1942.245605 724.628418 1928.455811 734.538696 1913.546021 742.778931 C 1888.826294 756.449341 1862.436401 763.309814 1834.106323 762.630249 C 1808.406372 762.010742 1793.216064 749.791016 1787.465576 724.631104 C 1783.775391 708.481201 1784.705078 692.191101 1786.384766 675.911133 C 1786.614746 673.611145 1786.994751 671.321106 1787.384644 668.341064 C 1783.764771 670.961182 1783.104736 674.611206 1781.594849 677.631165 C 1769.115234 702.631409 1754.055542 725.631653 1731.776001 743.102051 C 1716.776245 754.852356 1700.516357 763.242615 1680.666382 762.682983 C 1662.936279 762.183289 1649.41626 754.683533 1639.666016 739.973633 C 1634.665771 732.403748 1631.575562 723.973816 1628.885498 715.343872 C 1625.295532 715.003906 1623.595459 717.873962 1621.335571 719.564026 C 1605.335693 731.56427 1589.335938 743.634521 1570.646118 751.244873 C 1537.046387 764.895386 1502.646362 767.096008 1468.026245 756.246643 C 1431.906006 744.977234 1410.415527 715.9776 1408.884888 678.157654 C 1408.492676 668.829895 1409.038696 659.486267 1410.514404 650.267578 C 1413.394043 632.357544 1423.443848 619.927429 1439.513672 612.157104 C 1448.193604 607.94696 1457.163574 604.356812 1465.853516 600.156677 C 1475.515381 595.616577 1484.561035 589.867004 1492.773193 583.046204 C 1506.633057 571.295959 1514.512817 556.395813 1516.512451 538.335815 C 1516.90564 534.682007 1516.531006 530.986328 1515.412231 527.48584 C 1513.582153 521.48584 1509.182007 518.295959 1502.862061 517.866089 C 1495.602051 517.356201 1489.082031 519.786255 1482.862183 523.166382 C 1472.862305 528.626587 1464.272461 536.036743 1456.132568 543.976868 C 1434.052856 565.537231 1415.993286 590.247559 1399.533813 616.207764 C 1380.958252 645.473572 1364.875488 676.248779 1351.455322 708.208618 C 1346.555542 719.888672 1341.085693 731.268799 1334.055908 741.888916 C 1321.186279 761.339172 1301.986328 764.999512 1281.356323 761.629883 C 1271.91626 760.090027 1265.216064 753.970093 1261.755981 744.85022 C 1259.311157 738.281799 1257.881226 731.379333 1257.515625 724.38031 C 1256.065186 700.610291 1259.284912 677.170227 1262.514404 653.740173 C 1263.804321 644.550171 1265.204102 635.370117 1266.513916 626.230103 C 1263.633911 624.050171 1261.083862 625.950195 1258.67395 626.320251 C 1244.843994 628.420471 1231.014038 630.610718 1217.004028 630.950928 C 1210.274048 631.111084 1206.473999 633.661133 1203.674194 640.191223 C 1193.57019 663.840942 1179.350098 685.510315 1161.675293 704.191956 C 1137.225708 730.052368 1109.166138 750.412842 1073.996216 759.083435 C 1050.900269 764.819824 1026.683472 764.208679 1003.90625 757.314697 C 978.026123 749.6651 959.96582 732.995422 949.615356 708.065613 C 947.725342 703.535645 946.055176 698.90564 944.245117 694.205627 C 940.17511 694.615784 938.095215 697.465759 935.505249 699.355835 C 902.265625 723.736389 867.055969 744.356995 826.85614 755.097717 C 790.166321 764.988342 753.096375 766.189026 716.316223 756.189636 C 673.995972 744.680359 647.435547 717.450806 638.644775 673.880981 C 638.184753 671.600952 637.73468 669.330994 637.234619 667.060974 C 637.184631 666.831055 636.854614 666.661011 636.334656 666.171021 C 620.664917 684.361267 602.725281 700.17157 583.84552 714.881958 C 555.845886 736.712341 525.336182 752.882935 489.846252 758.883545 C 447.696381 765.884277 406.286346 764.065002 365.776093 749.525696 C 344.149292 741.766052 322.902466 733.099792 302.035645 723.526794 C 282.745361 714.495422 262.956512 706.56958 242.765228 699.787781 C 234.82518 697.177917 234.765182 697.11792 229.545319 703.67804 C 211.035721 727.208374 188.806 745.848694 160.066177 755.519287 C 134.38707 764.393738 106.650154 765.438416 80.376228 758.52063 C 76.850517 757.561035 73.411713 756.306641 70.096199 754.770813 C 43.095982 742.621277 32.295593 719.301453 40.535091 690.861328 C 44.104519 678.644287 50.71767 667.533752 59.754501 658.570984 C 78.874168 639.220581 102.474014 628.360229 128.64389 622.40979 C 143.333832 619.069519 158.24379 617.94928 173.283829 617.929016 C 184.103836 617.928833 184.173782 617.848816 186.753601 607.008789 C 202.339142 541.608521 217.90802 476.201569 233.460236 410.787994 C 241.909637 375.357849 252.779037 340.727661 270.978455 308.977325 C 316.097107 230.266602 382.796265 180.725403 472.125946 163.153931 C 507.71582 156.15332 543.705811 155.37262 579.195984 164.542053 C 621.196167 175.391296 648.836609 201.210815 658.767395 244.020691 C 664.767822 269.96051 661.148254 295.700623 654.43866 321.08075 C 649.619019 339.280792 642.309265 356.360931 630.789551 371.391144 C 620.319763 385.0513 607.429932 394.951569 589.72998 397.391876 C 581.782227 398.47049 573.694458 397.787842 566.039917 395.392273 C 551.659851 391.012512 544.85968 379.802612 546.689453 364.662567 C 548.099182 352.962524 552.569031 342.162476 556.368835 331.162415 C 561.148621 317.292328 565.638367 303.372253 565.738098 288.442261 C 565.917603 259.832275 550.487305 241.442444 521.947266 238.713013 C 468.087158 233.473938 422.767456 250.134766 388.668213 293.415314 C 366.268707 321.845673 351.789276 354.415955 341.669861 388.766144 C 325.670807 443.046387 310.861755 497.656647 295.672699 552.15686 C 289.32309 574.927002 282.913452 597.667114 274.40387 619.757263 C 273.749176 621.787109 273.201782 623.849976 272.763947 625.937317 C 288.003998 629.187012 303.014069 632.066772 317.854126 635.626526 C 355.704285 644.705872 393.454437 654.175171 431.274628 663.334595 C 468.414764 672.333923 505.214752 671.623291 541.41449 658.6427 C 563.35437 650.782227 582.354126 637.971924 599.923889 622.911621 C 605.243835 618.361572 610.293701 613.511475 615.54364 608.911377 C 620.993591 604.111267 627.373535 600.691162 634.633545 601.831055 C 640.543518 602.770996 642.043457 600.350891 643.153442 595.480896 C 647.846191 575.339111 655.434814 555.984314 665.682434 538.020569 C 688.941711 496.500153 720.681152 463.729584 764.480774 443.75885 C 791.050598 431.628387 818.910461 426.757904 848.160522 430.247375 C 883.600586 434.526733 907.091064 459.246368 908.161682 494.836304 C 909.292297 532.486328 895.262878 564.366516 869.693359 591.516968 C 849.183716 613.267334 823.613953 627.267822 796.214172 638.358215 C 777.970459 645.602295 759.262024 651.616028 740.214478 656.359192 C 736.684509 657.259277 733.214539 658.249329 728.684509 659.459351 C 731.684692 669.459351 737.854797 676.539246 746.184937 681.829102 C 758.115051 689.398865 771.615051 691.468628 785.345093 692.068481 C 802.235107 692.798157 818.475037 689.067871 834.234924 683.437622 C 870.072266 670.570374 903.135925 651.005615 931.66394 625.785889 C 934.663879 623.135864 937.333862 620.695801 937.523804 615.995789 C 939.203064 573.865784 947.152344 532.685669 957.521667 491.995483 C 978.330261 410.42514 1006.448853 331.514679 1045.627563 256.833923 C 1066.096924 217.833557 1089.506226 180.60321 1118.625732 147.282776 C 1131.625366 132.392517 1146.325195 119.402283 1163.304932 109.131958 C 1178.147339 100.070313 1194.875244 94.544128 1212.194702 92.981079 C 1243.45459 90.080505 1266.775024 108.780212 1273.435547 141.980042 C 1277.725952 163.369934 1275.106323 184.410034 1270.546753 205.380066 C 1257.317627 266.190308 1228.888672 319.540802 1190.779541 368.151428 C 1176.342651 386.480896 1160.990112 404.070221 1144.780396 420.852234 C 1142.500488 423.2323 1140.290527 425.692352 1137.720459 428.462341 C 1140.350586 431.192352 1143.540649 430.192291 1146.200562 430.642181 C 1179.090576 436.211639 1201.840942 454.641235 1215.35144 484.890991 C 1224.351807 505.060883 1227.352173 526.36084 1227.092529 548.230774 C 1226.992676 556.160767 1225.832764 557.230835 1235.772827 556.450623 C 1248.772705 555.450378 1261.452637 552.770142 1274.282715 550.849976 C 1280.15271 549.969849 1281.912598 547.119873 1283.122437 542.109863 C 1287.802246 522.689819 1292.29187 503.219696 1297.731445 484.009644 C 1320.190063 404.739227 1347.108765 327.138733 1385.44751 253.918091 C 1403.726929 219.027832 1424.076294 185.417358 1449.015869 154.806946 C 1463.185425 137.416687 1479.015259 121.806396 1498.234985 109.806091 C 1513.174805 100.435852 1529.294678 94.485596 1546.864746 93.075256 C 1573.264771 90.954834 1592.694824 101.574463 1603.365234 125.254333 C 1611.105591 142.434143 1612.685791 160.504211 1610.576172 179.044128 C 1604.796997 229.874329 1584.277954 275.044678 1557.148682 317.615143 C 1528.869385 361.975616 1494.330078 401.276184 1458.020752 439.056854 C 1433.02124 465.057281 1407.361572 490.217682 1380.671997 514.388184 C 1375.292114 519.258301 1371.672119 524.388306 1370.352295 531.848328 C 1367.352539 548.848389 1363.352905 565.748474 1359.993164 582.718506 C 1359.343262 585.928528 1358.363281 589.278503 1359.773438 592.588501 C 1359.003418 592.188538 1358.593384 592.37854 1358.523438 593.158508 C 1358.703369 593.158508 1358.963379 593.268494 1359.063354 593.158508 C 1359.279907 592.930969 1359.474121 592.683167 1359.643433 592.418518 Z M 2359.790527 430.581238 C 2403.319824 387.810455 2440.618896 340.249817 2469.788086 286.579315 C 2483.387451 261.579102 2493.787354 235.338928 2498.516846 207.098877 C 2500.236572 196.858826 2501.036377 186.50885 2499.335938 176.24884 C 2497.135742 162.968872 2487.405762 159.35907 2476.966064 167.689209 C 2471.456055 172.089294 2467.075928 177.559326 2462.966309 183.269531 C 2453.574219 196.632446 2445.216797 210.693542 2437.967041 225.329895 C 2405.748047 288.770447 2381.419189 355.330872 2360.260498 423.101257 C 2359.490479 425.591248 2358.260498 428.101288 2359.860352 430.751221 C 2358.980469 430.371216 2358.640381 430.451233 2358.860352 430.941223 C 2359.179443 430.84613 2359.490479 430.725769 2359.790527 430.581238 Z M 1399.840454 428.597839 C 1400.974487 427.947357 1402.048706 427.197693 1403.050415 426.357788 C 1445.359741 383.877075 1481.858887 336.996429 1510.148071 283.985931 C 1524.147583 257.705688 1534.717041 230.135559 1538.496582 200.325439 C 1539.586426 191.695374 1540.336304 183.085388 1537.946045 174.55542 C 1534.605957 162.655579 1526.945801 159.765686 1517.036011 166.755859 C 1512.775269 169.973083 1509.008667 173.797119 1505.856201 178.106018 C 1495.356445 191.556152 1486.976685 206.306274 1479.086914 221.356445 C 1456.337646 264.786865 1438.088501 310.127197 1421.589233 356.217438 C 1413.209595 379.697571 1404.690063 403.147736 1398.590454 427.377869 C 1398.000488 428.07785 1397.42041 429.037872 1398.200562 429.667877 C 1399.180542 430.497864 1399.51062 429.387817 1399.840454 428.647827 Z M 1111.981689 499.602814 C 1101.401733 498.813019 1092.351807 501.433167 1083.711792 505.833282 C 1071.281982 512.163513 1061.272217 521.463684 1053.22229 532.603821 C 1029.052979 566.03418 1019.783569 603.85437 1021.874268 644.60437 C 1022.491943 655.684692 1026.677124 666.268127 1033.80481 674.774109 C 1042.315063 685.174011 1053.324951 689.193848 1066.594971 687.363586 C 1077.775024 685.823425 1087.544922 681.183228 1096.434814 674.413025 C 1114.594482 660.582703 1125.124268 641.542542 1133.103882 620.762451 C 1134.35376 617.512451 1133.623779 615.142395 1130.953735 612.892456 C 1125.582886 608.396301 1120.946899 603.089111 1117.213379 597.16272 C 1104.453003 576.74292 1101.572632 554.412964 1104.412354 530.962891 C 1105.682129 520.462891 1109.621948 510.532837 1111.981689 499.602814 Z M 1054.181396 472.103821 C 1057.101196 470.813782 1058.331177 467.963715 1060.01123 465.633728 C 1081.590576 435.633362 1102.640137 405.282959 1122.719604 374.262665 C 1141.88916 344.662292 1161.068481 315.051971 1176.348022 283.141663 C 1187.00769 260.861511 1195.857178 237.951355 1200.646851 213.641296 C 1202.956543 201.881287 1204.99646 189.981201 1202.746216 177.981262 C 1201.646118 172.111267 1200.055908 166.051208 1193.305908 163.791443 C 1186.555908 161.531555 1181.765991 165.42157 1177.30603 169.44165 C 1170.056152 175.941772 1164.586304 183.931824 1159.366455 192.07196 C 1149.100098 208.4198 1139.981934 225.460938 1132.077271 243.072449 C 1098.908569 315.223022 1074.619873 390.47345 1054.001221 466.983826 C 1053.581177 468.563843 1053.141235 470.183838 1054.181396 472.103821 Z M 728.393555 603.539429 C 758.113403 596.698914 785.513245 586.148438 808.152954 565.878052 C 819.302734 555.877869 827.152527 543.78772 829.852234 528.697754 C 833.721863 507.007629 820.851624 494.547852 799.211792 499.188232 C 798.561768 499.328247 797.931763 499.578278 797.291748 499.738251 C 782.701843 503.248505 771.85199 512.358704 762.42218 523.398804 C 745.912476 542.739136 735.422852 565.139282 729.603271 589.769409 C 728.633423 593.839355 726.513489 597.899414 728.393555 603.539429 Z M 2657.623535 603.976074 C 2687.463379 597.075562 2714.213135 586.975098 2736.832764 567.914673 C 2744.596924 561.57605 2750.958008 553.692505 2755.512451 544.764404 C 2759.512451 536.624268 2762.202148 528.104309 2761.63208 518.874268 C 2760.921875 507.404297 2753.631592 499.694427 2742.20166 498.544647 C 2737.894531 498.121155 2733.547119 498.404968 2729.331543 499.384827 C 2715.001709 502.595123 2704.231934 511.235321 2694.842041 521.855469 C 2674.402344 544.955811 2663.312988 572.276001 2657.623535 603.956055 Z M 2950.623535 592.670959 L 2950.303467 593.320984 L 2950.803467 593.380981 Z"/>
    </g>
</svg>
